<svg id="Layer_1" data-name="Layer 1" xmlns="http://www.w3.org/2000/svg" xmlns:xlink="http://www.w3.org/1999/xlink" viewBox="0 0 1200 723.16"><defs><style>.cls-1,.cls-2,.cls-3,.cls-8,.cls-9{fill:none;}.cls-2,.cls-3,.cls-4,.cls-5,.cls-7,.cls-8,.cls-9{stroke:#ccc;stroke-width:4px;}.cls-2,.cls-4,.cls-7,.cls-8,.cls-9{stroke-linecap:round;}.cls-2,.cls-3,.cls-4,.cls-5{stroke-miterlimit:10;}.cls-4,.cls-5,.cls-7{fill:#fff;}.cls-6{clip-path:url(#clip-path);}.cls-7,.cls-8,.cls-9{stroke-linejoin:round;}.cls-8{stroke-dasharray:6;}</style><clipPath id="clip-path"><path class="cls-1" d="M-273.08,677.92H647.69a5.2,5.2,0,0,0,3.68-1.53L1236.62,87.11H313.7Z"/></clipPath></defs><path class="cls-2" d="M446.57,408.75l31.93-7.35a42.32,42.32,0,0,0,26.06-18.32L529,345a12.79,12.79,0,0,0-1.71-16l-67.8-67.8a12.8,12.8,0,0,0-16-1.72L405.49,284a42.22,42.22,0,0,0-18.31,26.05L379.83,342Z"/><path class="cls-2" d="M443.32,364.38l-19.13-19.12a8.28,8.28,0,0,1-1.62-9.4l8.13-17.14A8.28,8.28,0,0,1,444,316.41l28.13,28.14a8.26,8.26,0,0,1-2.3,13.32L452.71,366A8.25,8.25,0,0,1,443.32,364.38Z"/><path class="cls-2" d="M433.75,354.82l10.75,10.75a30.93,30.93,0,0,0,16.11,8.51l8.26,1.56"/><path class="cls-2" d="M433.75,354.82,423,344.07A30.84,30.84,0,0,1,414.5,328l-1.56-8.25"/><path class="cls-2" d="M458.17,344.26,450,345.58a6.11,6.11,0,0,1-7-7l1.33-8.15a6.11,6.11,0,0,1,10.36-3.34l6.83,6.82A6.12,6.12,0,0,1,458.17,344.26Z"/><rect class="cls-2" x="469.45" y="287.83" width="12.63" height="49.97" transform="translate(360.54 -244.79) rotate(45)"/><path class="cls-2" d="M459.53,261.25s8,39.22-5.9,64.76"/><path class="cls-2" d="M527.33,329.05S488.1,321,462.56,335"/><path class="cls-2" d="M484,344.46s10-4.25,13.76,6.65C497.72,351.11,487.76,355.37,484,344.46Z"/><path class="cls-2" d="M437.93,291.29s10.43,2.88,6.6,13.78C444.53,305.07,434.09,302.18,437.93,291.29Z"/><line class="cls-2" x1="444.7" y1="343.87" x2="433.75" y2="354.82"/><path class="cls-2" d="M498.47,390.5l-14.14-14.14s16.16,1.14,29.78-8.12"/><path class="cls-2" d="M420.33,274.46c-9.27,13.62-8.13,29.77-8.13,29.77l-14.14-14.14"/><rect class="cls-2" x="348.8" y="372.11" width="112.98" height="22.36" rx="1.43" transform="translate(389.73 -174.32) rotate(45)"/><polyline class="cls-2" points="401.24 395.12 459.49 453.37 488.39 418.88 506.5 418.88 468.75 500.75"/><path class="cls-2" d="M506.5,418.88v-8.77c0-9.26-3.34-14.4-8-19.61l.75.64"/><path class="cls-2" d="M488.39,418.88s-13.8-.87-13.8-16.58"/><path class="cls-2" d="M364.46,500.75h75.4a19,19,0,0,1,17.25,27.07l-42.83,91.81h15.63a21.93,21.93,0,0,1,21.93,21.92v6.08"/><line class="cls-2" x1="405.09" y1="492.36" x2="434.52" y2="428.32"/><path class="cls-2" d="M405.61,500.75v-4.47A15.61,15.61,0,0,0,390,480.67H376.09l-37.85-66.55,15.57-3.53"/><path class="cls-2" d="M307.49,443.79l-33.75,73.33a28.51,28.51,0,0,0,25.9,40.44h62"/><polyline class="cls-2" points="233.42 647.63 329.97 647.63 329.97 692.66 311.92 692.66"/><polyline class="cls-2" points="215.54 602.6 329.97 602.6 329.97 647.63 233.42 647.63"/><polyline class="cls-2" points="329.97 692.66 329.97 686.16 329.97 602.6 381.05 602.6 381.05 692.66"/><polyline class="cls-2" points="446.77 602.6 267.65 602.6 267.65 557.56 388.86 557.56"/><polyline class="cls-2" points="534.29 692.66 381.05 692.66 381.05 647.63 534.29 647.63"/><line class="cls-2" x1="223.33" y1="602.59" x2="223.33" y2="638.18"/><line class="cls-2" x1="381.19" y1="557.56" x2="381.19" y2="602.59"/><line class="cls-2" x1="526.38" y1="647.63" x2="526.38" y2="692.66"/><path class="cls-2" d="M376.09,480.67l-11.63,20.08-85-85a15.68,15.68,0,0,1,4.34-25.24l76.45-36.47"/><line class="cls-2" x1="368.37" y1="467.1" x2="348.87" y2="485.16"/><line class="cls-2" x1="479.2" y1="429.85" x2="497.72" y2="437.92"/><line class="cls-2" x1="411.46" y1="478.51" x2="448.18" y2="500.75"/><path class="cls-2" d="M421.77,456.08,452.23,477a6.54,6.54,0,0,0,9.16-1.8l27.07-41.29"/><path class="cls-2" d="M358.62,476.13l-47.14-63.38a5.83,5.83,0,0,1,2.52-8.89l68.71-27.35"/><line class="cls-2" x1="281.27" y1="500.75" x2="338" y2="500.75"/><polyline class="cls-2" points="391.68 411.94 380.89 445.57 402.44 428.24 398.49 452.83 419.3 432.38"/><path class="cls-2" d="M389,500.75h75.4a19,19,0,0,1,17.24,27.07l-42.82,91.81h15.63a21.93,21.93,0,0,1,21.93,21.92v6.08"/><line class="cls-2" x1="414.28" y1="619.63" x2="410.39" y2="627.98"/><line class="cls-2" x1="426.81" y1="619.63" x2="422.91" y2="627.98"/><line class="cls-2" x1="316.37" y1="631.32" x2="286" y2="631.32"/><line class="cls-2" x1="526.38" y1="677.91" x2="485.21" y2="677.91"/><line class="cls-2" x1="432.33" y1="662.09" x2="381.19" y2="662.09"/><line class="cls-2" x1="344.63" y1="684.61" x2="344.63" y2="662.09"/><line class="cls-2" x1="267.65" y1="587.17" x2="291.21" y2="587.17"/><line class="cls-2" x1="286" y1="572.17" x2="329.97" y2="572.17"/><line class="cls-2" x1="381.05" y1="684.61" x2="329.97" y2="684.61"/><line class="cls-3" x1="622.46" y1="166.15" x2="493.71" y2="295.43"/><line class="cls-3" x1="994.36" y1="129.51" x2="684.77" y2="129.51"/><path class="cls-3" d="M526.38,677.92H647.83a4.83,4.83,0,0,0,3.44-1.43l534.65-539a4.69,4.69,0,0,0-3.33-8H1033.65"/><path class="cls-3" d="M719.37,86.66a79.1,79.1,0,1,0-11.09,42.85"/><line class="cls-4" x1="548.57" y1="140.76" x2="485.04" y2="174.38"/><line class="cls-4" x1="541.43" y1="119.54" x2="504.62" y2="131.74"/><path class="cls-3" d="M149.82,549.9,147.91,561a2.53,2.53,0,0,0,2.6,3l9-.37,4.1-.17a2.53,2.53,0,0,0,2.41-2.88l-1.26-8.94"/><path class="cls-3" d="M44.36,502.27s6.62-11,24.85-1S79.57,529.1,98.59,535.7s18.16-29.33,52.72-33.2,61.77,52.47,64,69c0,0-2.55,5.33-9.28-1.46s-24.73-18.65-37.94-18.42-20.59-.08-34.87-11.17c0,0-3.87-4.45-9.87-.82s-22.82,12.92-35.84,2.7S70.7,515,65.36,512.17s-7.85,3.39-17.16,1.32L34,518.13A2.35,2.35,0,0,1,31.1,515C32.59,511.4,36.09,506.2,44.36,502.27Z"/><path class="cls-2" d="M138.81,527.51c5.81,6.88,14.89,15.18,46.58,12.07"/><path class="cls-5" d="M44.36,502.27s3.67-.45,3.85,3.85-1.66,4.54,0,7.37"/><line class="cls-5" x1="150.76" y1="563.98" x2="146.46" y2="609.93"/><line class="cls-5" x1="163.03" y1="563.48" x2="170.3" y2="618.16"/><line class="cls-2" x1="559.96" y1="160.72" x2="538.57" y2="179.16"/><g class="cls-6"><path class="cls-3" d="M1014,108.83H999.25a4.88,4.88,0,0,0-4.89,4.88v19.23L998.75,145v96.62a4.13,4.13,0,0,0,.43,1.82l11.18,22.39a4.08,4.08,0,0,0,7.3,0l11.18-22.39a4.13,4.13,0,0,0,.43-1.82V145l4.38-12.06V113.71a4.88,4.88,0,0,0-4.89-4.88H1014"/><path class="cls-3" d="M793.49,219.92l-4.39-7.62V193.07a4.89,4.89,0,0,1,4.89-4.89h14.76"/><path class="cls-3" d="M824,383.34v-159l4.38-12.06V193.07a4.89,4.89,0,0,0-4.89-4.89H808.75"/><path class="cls-3" d="M1204,383.34v-159l-4.39-12.06V193.07a4.89,4.89,0,0,1,4.89-4.89h14.76"/><path class="cls-3" d="M741.69,219.29h-107a5.33,5.33,0,0,0-5.33,5.33v50.94a5.38,5.38,0,0,0,.66,2.58l14.6,26.42a5.31,5.31,0,0,1,.67,2.58V676.53a5.33,5.33,0,0,0,5.33,5.33h726.71a5.33,5.33,0,0,0,5.34-5.33V307.14a5.41,5.41,0,0,1,.66-2.58l14.6-26.42a5.28,5.28,0,0,0,.67-2.58V224.62a5.33,5.33,0,0,0-5.34-5.33h-107"/><path class="cls-3" d="M793.38,681.86V307a4.84,4.84,0,0,1,.61-2.35L808.71,278a4.84,4.84,0,0,0,.61-2.35V224.15a4.86,4.86,0,0,0-4.87-4.86H697"/><path class="cls-3" d="M998.61,171H960.79a4.66,4.66,0,0,0-4.66,4.66v13.8H918.32a4.65,4.65,0,0,0-4.66,4.66v13.05H875.84a4.66,4.66,0,0,0-4.66,4.66v7.89a4.66,4.66,0,0,1-4.66,4.66H824"/><path class="cls-3" d="M1029.41,171h37.74a4.73,4.73,0,0,1,4.73,4.73v13.73h37.75a4.73,4.73,0,0,1,4.73,4.73v13h37.74a4.74,4.74,0,0,1,4.74,4.73v7.34a5.14,5.14,0,0,0,5.14,5.14h42"/><line class="cls-3" x1="793.44" y1="383.34" x2="1234.58" y2="383.34"/><line class="cls-2" x1="709.76" y1="409.7" x2="1318.26" y2="409.7"/><path class="cls-3" d="M793.44,490.11h245.27a5.49,5.49,0,0,1,5.49,5.5v36.8a5.5,5.5,0,0,0,5.5,5.5h184.88"/><path class="cls-3" d="M881.88,681.86V623.17s3.44-36.74,36.74-36.74v95.43Z"/><path class="cls-3" d="M918.62,681.86h36.75V623.17s-3.44-36.74-36.75-36.74"/><path class="cls-3" d="M842.64,681.86V632.55a92.71,92.71,0,0,1,3.81-26.75c6.77-22.46,24.95-58.17,72.17-58.17,49.44,0,67,39.14,73.06,61.24a87.59,87.59,0,0,1,2.93,23v50"/><path class="cls-3" d="M1024.05,681.86V631.62a105.43,105.43,0,0,0-2.84-24.58c-7-29.37-30.25-89.76-102.59-89.76-75.06,0-97.24,65-103.31,93a93.38,93.38,0,0,0-2.11,19.86v51.77"/><line class="cls-3" x1="1204.01" y1="277.7" x2="824.01" y2="277.7"/><path class="cls-3" d="M920.51,304.6a8.13,8.13,0,0,0-10.2-7.86,8.34,8.34,0,0,0-6,8.18v53a5,5,0,0,0,5,5h6.28a5,5,0,0,0,5-5Z"/><path class="cls-3" d="M1158.27,488.39a34.41,34.41,0,0,0-68.82,0v49.52h68.82Z"/><path class="cls-3" d="M1158.27,632.35a34.41,34.41,0,0,0-68.82,0v49.51h68.82Z"/><path class="cls-3" d="M971.35,304.6a8.13,8.13,0,0,0-10.2-7.86,8.34,8.34,0,0,0-6,8.18v53a5,5,0,0,0,5,5h6.29a5,5,0,0,0,5-5Z"/><path class="cls-3" d="M1022.19,304.6a8.13,8.13,0,0,0-10.2-7.86,8.33,8.33,0,0,0-6,8.18v53a5,5,0,0,0,5,5h6.29a5,5,0,0,0,5-5Z"/><path class="cls-3" d="M1073,304.6a8.13,8.13,0,0,0-10.19-7.86,8.33,8.33,0,0,0-6,8.18v53a5,5,0,0,0,5,5h6.28a5,5,0,0,0,5-5Z"/><path class="cls-3" d="M1123.86,304.6a8.13,8.13,0,0,0-10.2-7.86,8.34,8.34,0,0,0-6,8.18v53a5,5,0,0,0,5,5h6.28a5,5,0,0,0,5-5Z"/><line class="cls-2" x1="828.39" y1="435.4" x2="828.39" y2="488.63"/><line class="cls-2" x1="864.26" y1="435.4" x2="864.26" y2="488.63"/><line class="cls-2" x1="900.14" y1="435.4" x2="900.14" y2="488.63"/><line class="cls-2" x1="971.88" y1="435.4" x2="971.88" y2="488.63"/><line class="cls-2" x1="1007.76" y1="435.4" x2="1007.76" y2="488.63"/><line class="cls-2" x1="936.01" y1="435.4" x2="936.01" y2="488.63"/><rect class="cls-3" x="920.51" y="224.36" width="34.62" height="34.62" rx="1.72"/><rect class="cls-3" x="1072.14" y="224.36" width="34.62" height="34.62" rx="1.72"/><line class="cls-2" x1="669.39" y1="462.02" x2="741.69" y2="462.02"/><line class="cls-2" x1="697.01" y1="492.54" x2="769.31" y2="492.54"/><line class="cls-2" x1="691.53" y1="302.11" x2="795.4" y2="302.11"/><line class="cls-2" x1="675.8" y1="313.69" x2="709.76" y2="313.69"/></g><path class="cls-3" d="M320.78,708.89C311.6,685.6,289.29,665,263.39,665a61.21,61.21,0,0,0-13.7,1.58,4.08,4.08,0,0,1-4.56-2.08c-13.48-25.63-38.2-41-67.77-45.28a3.9,3.9,0,0,1-2.06-1,30,30,0,0,0-43.91,2.42,3.84,3.84,0,0,1-1.81,1.18c-24,6.94-39.82,23.29-49.16,49.62a4,4,0,0,1-5.51,2.37,37.12,37.12,0,0,0-15.46-3.36c-26.26,0-44,20.87-48,39.19a4,4,0,0,0,4,4.83H317A4,4,0,0,0,320.78,708.89Z"/><path class="cls-3" d="M768.1,104.76c-8.21,0-14.13,1.64-18.8,4.51a4.33,4.33,0,0,1-6.16-1.84c-7.74-15.55-26.82-25.07-45.31-25.07-23.58,0-38.53,19.26-40.34,42.38a4.41,4.41,0,0,0,4.37,4.77H788.32a4.39,4.39,0,0,0,4-6.21C787.76,113.31,779.32,104.76,768.1,104.76Z"/><path class="cls-3" d="M316.91,216a4.31,4.31,0,0,1-2.92-1.11,55.33,55.33,0,0,0-17.43-11.08c-26.77-10.59-53.9,8-67.6,29.33a5.61,5.61,0,0,1-7.5,1.83c-7.53-4.61-18.14-6.93-27-6.93-21,0-42.27,16.56-40.55,41.55a5.25,5.25,0,0,0,5.22,4.88H332.54a5.73,5.73,0,0,0,5.71-6.42,113.72,113.72,0,0,0-3.9-18.41,4.43,4.43,0,0,1,.25-3.1,25.29,25.29,0,0,0,2.06-9.27C337,230.41,330.49,216.09,316.91,216Z"/><path class="cls-2" d="M570.77,531.5a10.95,10.95,0,1,0,21.9,0"/><path class="cls-2" d="M548.87,531.5a11,11,0,1,0,21.9,0"/><path class="cls-2" d="M514.11,576.85a11,11,0,0,0,21.9,0"/><path class="cls-2" d="M492.21,576.85a11,11,0,1,0,21.9,0"/><line class="cls-7" x1="1078.39" y1="677.92" x2="927.65" y2="677.92"/><path class="cls-2" d="M592.67,604.92a11,11,0,0,0,21.9,0"/><path class="cls-2" d="M570.77,604.92a10.95,10.95,0,0,0,21.9,0"/><path class="cls-2" d="M623.39,470.53a10.95,10.95,0,1,0,21.9,0"/><path class="cls-2" d="M601.49,470.53a10.95,10.95,0,1,0,21.9,0"/><path class="cls-2" d="M579.59,470.66a10.95,10.95,0,1,0,21.9,0"/><path class="cls-2" d="M557.68,470.66a11,11,0,0,0,21.91,0"/><path class="cls-2" d="M535.46,470.66a10.95,10.95,0,0,0,21.9,0"/><path class="cls-2" d="M513.56,470.66a11,11,0,1,0,21.9,0"/><path class="cls-2" d="M491.66,470.66a10.95,10.95,0,1,0,21.9,0"/><path class="cls-2" d="M477.76,481.21a11,11,0,0,0,13.9-10.55"/><line class="cls-8" x1="942.52" y1="525.31" x2="942.52" y2="466.28"/><path class="cls-8" d="M942.52,579.11s-13.67-68.2-49.45-97"/><path class="cls-8" d="M942.52,579.11s13.66-68.2,49.44-97"/><path class="cls-8" d="M918.73,564.71s-21.88-46.22-55.15-43.13"/><path class="cls-8" d="M967,564.71s21.88-46.22,55.15-43.13"/><path class="cls-8" d="M875,543.07s-25.78-13.45-39.39,17.7"/><path class="cls-8" d="M1006.46,543.07s25.78-13.45,39.39,17.7"/><path class="cls-9" d="M932.37,677.91h55.51a4.56,4.56,0,0,0,3.1-1.22l88-82.12a4.58,4.58,0,0,0,1.44-3.32v-7.6a4.54,4.54,0,0,0-4.54-4.54H809.39a4.54,4.54,0,0,0-4.54,4.54v7.6a4.54,4.54,0,0,0,1.44,3.32L873.19,657"/><line class="cls-9" x1="1079.95" y1="593.22" x2="1033.45" y2="593.22"/><line class="cls-9" x1="891.16" y1="593.22" x2="806.29" y2="593.22"/><path class="cls-3" d="M799.47,683.53c10.24,0,17.64,2,23.46,5.63a5.4,5.4,0,0,0,7.68-2.31c9.67-19.4,33.48-31.28,56.56-31.28,29.42,0,48.09,24,50.34,52.89a5.49,5.49,0,0,1-5.44,5.95H774.23a5.46,5.46,0,0,1-5-7.74C774.93,694.19,785.46,683.53,799.47,683.53Z"/></svg>