<svg xmlns="http://www.w3.org/2000/svg" width="462.263" height="121.327" viewBox="0 0 462.263 121.327">
  <path id="Path_1620" data-name="Path 1620" d="M434.108,160.3c-28.471,0-37.183,19.541-39.843,31.019a2.856,2.856,0,0,1-5.162.94c-5.4-8.094-16.6-20.108-35.478-20.108-29.522,0-36.213,21.9-37.676,29.93a2.841,2.841,0,0,1-3.218,2.322c-3.934-.6-11.3-.942-17.756,3.135a28.413,28.413,0,0,0-10.909,13.147,2.828,2.828,0,0,1-3.181,1.7,19.089,19.089,0,0,0-12.954,1.665c-3.748,2.055-6.5,7.995-7.7,11.028a2.835,2.835,0,0,1-2.695,1.792c-4.934-.083-17.54-.26-22.391.037-8.854.544-10.077,14.315,0,14.186,11.337-.145,8.458-.219,13.721-.092,6.947.166,8.921,11.206-.283,11.272-9.612.071-33.156-2.25-33.156,8.458s6.078,9.08,26.182,9.08H649.758c20.1,0,26.18,1.626,26.18-9.08s-23.542-8.386-33.154-8.458c-9.206-.067-7.232-11.107-.283-11.272,5.263-.127,2.384-.053,13.719.092,10.077.129,8.856-13.643,0-14.186-4.851-.3-17.455-.12-22.388-.037a2.831,2.831,0,0,1-2.695-1.792c-1.2-3.033-3.955-8.974-7.7-11.028a19.09,19.09,0,0,0-12.954-1.665,2.826,2.826,0,0,1-3.181-1.7,28.436,28.436,0,0,0-10.911-13.147c-6.452-4.077-13.82-3.736-17.754-3.135a2.843,2.843,0,0,1-3.22-2.322c-1.46-8.032-8.151-29.93-37.673-29.93-23.623,0-35.223,18.816-38.486,25.219a2.83,2.83,0,0,1-3.149,1.46,25.674,25.674,0,0,0-9.649.108,5.3,5.3,0,0,1-6.15-4.171C478.109,183.771,469.292,160.3,434.108,160.3Z" transform="translate(-214.55 -159.425)" fill="#fff" stroke="#ccc" stroke-miterlimit="10" stroke-width="1.75"/>
</svg>
