<svg xmlns="http://www.w3.org/2000/svg" xmlns:xlink="http://www.w3.org/1999/xlink" width="712.001" height="163.22" viewBox="0 0 712.001 163.22"><defs><clipPath id="a"><rect width="711.62" height="94.4" transform="translate(1.58 1.78)" fill="none"/></clipPath><clipPath id="b"><path d="M197,70.13H159.49c25.23-21.78,26.56-22.83,27.2-23.29a12.88,12.88,0,0,1,16.06,20.09A13.49,13.49,0,0,1,197,70.13Z" fill="none"/></clipPath></defs><g transform="translate(-1.33 -1.78)"><g clip-path="url(#a)"><path d="M682.67,22.07a.84.84,0,0,1-.58-.22,10.851,10.851,0,0,0-3.46-2.2c-5.32-2.1-10.71,1.59-13.43,5.83a1.11,1.11,0,0,1-1.49.36,10.93,10.93,0,0,0-5.35-1.38,7.87,7.87,0,0,0-8.06,8.26,1,1,0,0,0,1,1h34.44a1.14,1.14,0,0,0,1.13-1.27,22.8,22.8,0,0,0-.77-3.66.88.88,0,0,1,.05-.62,5.052,5.052,0,0,0,.41-1.84C686.66,24.94,685.37,22.09,682.67,22.07Z" fill="none" stroke="#949494" stroke-miterlimit="10" stroke-width="0.75"/><rect width="22.86" height="5.08" transform="translate(641.09 29.97)" fill="#fff"/><path d="M338.06,96.63H292.17a.64.64,0,0,1-.64-.63V56.78h28.32" fill="none" stroke="#949494" stroke-miterlimit="10" stroke-width="0.75"/><path d="M399.59,56.78h27.62V96a.65.65,0,0,1-.65.66H381.12" fill="none" stroke="#949494" stroke-miterlimit="10" stroke-width="0.75"/><path d="M381.22,49.27h1.11a.64.64,0,0,0,.28-1.22l-22.78-11.3a.64.64,0,0,0-.57,0l-22.79,11.3a.64.64,0,0,0,.29,1.22h44.46Z" fill="none" stroke="#949494" stroke-miterlimit="10" stroke-width="0.75"/><path d="M377.26,45.39h22.37a.6.6,0,0,0,.22-1.15L359.76,28.9a.64.64,0,0,0-.43,0L319.24,44.24a.59.59,0,0,0,.21,1.15h22.38" fill="none" stroke="#949494" stroke-miterlimit="10" stroke-width="0.75"/><path d="M380.93,76.74V97.79a.67.67,0,0,1-.67.68H338.71a.65.65,0,0,1-.65-.66V76.74" fill="none" stroke="#949494" stroke-miterlimit="10" stroke-width="0.75"/><path d="M363.07,83.9a3.7,3.7,0,1,0-7.39,0V98.47h7.39Z" fill="none" stroke="#949494" stroke-miterlimit="10" stroke-width="0.75"/><path d="M352.17,83.9a3.7,3.7,0,1,0-7.39,0V98.47h7.39Z" fill="none" stroke="#949494" stroke-miterlimit="10" stroke-width="0.75"/><path d="M374,83.9a3.7,3.7,0,1,0-7.39,0V98.47H374Z" fill="none" stroke="#949494" stroke-miterlimit="10" stroke-width="0.75"/><path d="M380.93,49.27V53.1H338.06V49.27" fill="none" stroke="#949494" stroke-miterlimit="10" stroke-width="0.75"/><line x2="43.35" transform="translate(337.87 76.7)" fill="none" stroke="#949494" stroke-miterlimit="10" stroke-width="0.75"/><line y1="51.24" transform="translate(319.85 45.39)" fill="none" stroke="#949494" stroke-miterlimit="10" stroke-width="0.75"/><line y1="51.24" transform="translate(399.59 45.39)" fill="none" stroke="#949494" stroke-miterlimit="10" stroke-width="0.75"/><line x2="18.2" transform="translate(319.85 55.39)" fill="none" stroke="#949494" stroke-miterlimit="10" stroke-width="0.75"/><line x2="18.73" transform="translate(380.93 55.39)" fill="none" stroke="#949494" stroke-miterlimit="10" stroke-width="0.75"/><rect width="6.03" height="11.34" rx="0.58" transform="translate(326.2 61.51)" fill="none" stroke="#949494" stroke-miterlimit="10" stroke-width="0.75"/><rect width="6.03" height="11.34" rx="0.58" transform="translate(326.2 78.96)" fill="none" stroke="#949494" stroke-miterlimit="10" stroke-width="0.75"/><rect width="6.03" height="11.34" rx="0.46" transform="translate(387.28 61.51)" fill="none" stroke="#949494" stroke-miterlimit="10" stroke-width="0.75"/><rect width="6.03" height="11.34" rx="0.46" transform="translate(387.28 78.96)" fill="none" stroke="#949494" stroke-miterlimit="10" stroke-width="0.75"/><rect width="6.03" height="11.34" rx="0.46" transform="translate(404.85 61.51)" fill="none" stroke="#949494" stroke-miterlimit="10" stroke-width="0.75"/><rect width="6.03" height="11.34" rx="0.46" transform="translate(404.85 78.96)" fill="none" stroke="#949494" stroke-miterlimit="10" stroke-width="0.75"/><rect width="6.03" height="11.34" rx="0.46" transform="translate(415.37 61.51)" fill="none" stroke="#949494" stroke-miterlimit="10" stroke-width="0.75"/><rect width="6.03" height="11.34" rx="0.46" transform="translate(415.37 78.96)" fill="none" stroke="#949494" stroke-miterlimit="10" stroke-width="0.75"/><rect width="6.03" height="11.34" rx="0.66" transform="translate(297.18 61.51)" fill="none" stroke="#949494" stroke-miterlimit="10" stroke-width="0.75"/><rect width="6.03" height="11.34" rx="0.58" transform="translate(297.18 78.96)" fill="none" stroke="#949494" stroke-miterlimit="10" stroke-width="0.75"/><rect width="6.03" height="11.34" rx="0.66" transform="translate(307.7 61.51)" fill="none" stroke="#949494" stroke-miterlimit="10" stroke-width="0.75"/><rect width="6.03" height="11.34" rx="0.58" transform="translate(307.7 78.96)" fill="none" stroke="#949494" stroke-miterlimit="10" stroke-width="0.75"/><path d="M291.53,57V51.4a.63.63,0,0,1,.63-.62h27.69" fill="none" stroke="#949494" stroke-miterlimit="10" stroke-width="0.75"/><line y2="6.23" transform="translate(300.97 50.78)" fill="none" stroke="#949494" stroke-miterlimit="10" stroke-width="0.75"/><line y2="6.23" transform="translate(305.69 50.78)" fill="none" stroke="#949494" stroke-miterlimit="10" stroke-width="0.75"/><line y2="6.23" transform="translate(315.13 50.78)" fill="none" stroke="#949494" stroke-miterlimit="10" stroke-width="0.75"/><line y2="6.23" transform="translate(296.25 50.78)" fill="none" stroke="#949494" stroke-miterlimit="10" stroke-width="0.75"/><line y2="6.23" transform="translate(310.41 50.78)" fill="none" stroke="#949494" stroke-miterlimit="10" stroke-width="0.75"/><line y2="6.23" transform="translate(403.58 50.78)" fill="none" stroke="#949494" stroke-miterlimit="10" stroke-width="0.75"/><line y2="6.23" transform="translate(413.02 50.78)" fill="none" stroke="#949494" stroke-miterlimit="10" stroke-width="0.75"/><line y2="6.23" transform="translate(417.73 50.78)" fill="none" stroke="#949494" stroke-miterlimit="10" stroke-width="0.75"/><path d="M399.42,50.78h27.07a.72.72,0,0,1,.72.72V57" fill="none" stroke="#949494" stroke-miterlimit="10" stroke-width="0.75"/><line y2="6.23" transform="translate(408.3 50.78)" fill="none" stroke="#949494" stroke-miterlimit="10" stroke-width="0.75"/><line y2="6.23" transform="translate(422.45 50.78)" fill="none" stroke="#949494" stroke-miterlimit="10" stroke-width="0.75"/><ellipse cx="3.58" cy="2.07" rx="3.58" ry="2.07" transform="translate(356.01 41.69)" fill="none" stroke="#949494" stroke-miterlimit="10" stroke-width="0.75"/><path d="M341.07,76.7h-3.02V53.24" fill="none" stroke="#949494" stroke-miterlimit="10" stroke-width="0.75"/><rect width="3.01" height="23.47" transform="translate(343.28 53.24)" fill="none" stroke="#949494" stroke-miterlimit="10" stroke-width="0.75"/><rect width="3.01" height="23.47" transform="translate(372.69 53.24)" fill="none" stroke="#949494" stroke-miterlimit="10" stroke-width="0.75"/><path d="M380.93,53.24V76.7h-3.01" fill="none" stroke="#949494" stroke-miterlimit="10" stroke-width="0.75"/><rect width="3.01" height="23.47" transform="translate(353.17 53.24)" fill="none" stroke="#949494" stroke-miterlimit="10" stroke-width="0.75"/><rect width="3.01" height="23.47" transform="translate(362.9 53.24)" fill="none" stroke="#949494" stroke-miterlimit="10" stroke-width="0.75"/><path d="M40.82,26.62C42.2,23.13,45.54,20,49.41,20a8.65,8.65,0,0,1,2.05.24.62.62,0,0,0,.69-.32,13.21,13.21,0,0,1,10.14-6.78A.53.53,0,0,0,62.6,13a4.5,4.5,0,0,1,6.57.37.65.65,0,0,0,.27.17c3.6,1,6,3.49,7.36,7.43a.62.62,0,0,0,.83.36,5.42,5.42,0,0,1,2.31-.51,7.53,7.53,0,0,1,7.18,5.87.6.6,0,0,1-.59.72H41.39a.6.6,0,0,1-.57-.79Z" fill="none" stroke="#949494" stroke-miterlimit="10" stroke-width="0.75"/><path d="M247.73,48.34a7.08,7.08,0,0,1,3.85.93.89.89,0,0,0,1.26-.38c1.59-3.18,5.49-5.13,9.28-5.13,4.83,0,7.89,3.94,8.26,8.67a.9.9,0,0,1-.9,1H243.59a.9.9,0,0,1-.81-1.27C243.71,50.09,245.43,48.34,247.73,48.34Z" fill="none" stroke="#949494" stroke-miterlimit="10" stroke-width="0.75"/><path d="M198.93,45.34c-1.37-3.49-4.71-6.58-8.59-6.58a8.65,8.65,0,0,0-2.05.24.62.62,0,0,1-.68-.32,13.18,13.18,0,0,0-10.15-6.77.66.66,0,0,1-.31-.16,4.5,4.5,0,0,0-6.57.37.59.59,0,0,1-.27.17c-3.59,1-6,3.49-7.36,7.43a.61.61,0,0,1-.83.36,5.39,5.39,0,0,0-2.31-.51,7.54,7.54,0,0,0-7.18,5.87.6.6,0,0,0,.59.72h45.15a.6.6,0,0,0,.56-.82Z" fill="none" stroke="#949494" stroke-miterlimit="10" stroke-width="0.75"/><path d="M608.9,14.16h-2.11a.71.71,0,0,0-.7.7v2.76l.63,1.72V33.17a.58.58,0,0,0,.06.26l1.6,3.2a.59.59,0,0,0,1,0l1.6-3.2a.579.579,0,0,0,.06-.26V19.34l.63-1.72V14.86a.71.71,0,0,0-.7-.7H608.9" fill="none" stroke="#949494" stroke-miterlimit="10" stroke-width="0.75"/><path d="M577.35,30.06,576.72,29V26.22a.7.7,0,0,1,.7-.7h2.11" fill="none" stroke="#949494" stroke-miterlimit="10" stroke-width="0.75"/><path d="M581.71,53.45V30.7l.63-1.73V26.22a.7.7,0,0,0-.7-.7h-2.11" fill="none" stroke="#949494" stroke-miterlimit="10" stroke-width="0.75"/><path d="M636.1,53.45V30.7l-.63-1.7V26.22a.7.7,0,0,1,.7-.7h2.11" fill="none" stroke="#949494" stroke-miterlimit="10" stroke-width="0.75"/><path d="M640.46,30.06l.63-1.09V26.22a.7.7,0,0,0-.7-.7h-2.11" fill="none" stroke="#949494" stroke-miterlimit="10" stroke-width="0.75"/><path d="M569.93,30H554.62a.76.76,0,0,0-.76.76V38a.68.68,0,0,0,.1.36l2.09,3.79a.77.77,0,0,1,.09.36v52.9a.76.76,0,0,0,.76.76h104a.77.77,0,0,0,.77-.76V42.54a.771.771,0,0,1,.09-.36l2.09-3.79A.78.78,0,0,0,664,38V30.7a.77.77,0,0,0-.77-.76H647.87" fill="none" stroke="#949494" stroke-miterlimit="10" stroke-width="0.75"/><path d="M577.33,96.17V42.53a.67.67,0,0,1,.09-.34l2.1-3.81a.67.67,0,0,0,.09-.34V30.67a.7.7,0,0,0-.7-.7H563.54" fill="none" stroke="#949494" stroke-miterlimit="10" stroke-width="0.75"/><path d="M640.48,96.17V42.54a.75.75,0,0,0-.1-.36l-2.09-3.79a.741.741,0,0,1-.09-.36v-7.3A.75.75,0,0,1,639,30h15.32" fill="none" stroke="#949494" stroke-miterlimit="10" stroke-width="0.75"/><path d="M606.7,23.06h-5.41a.67.67,0,0,0-.67.66v2h-5.41a.67.67,0,0,0-.67.67v1.87h-5.41a.67.67,0,0,0-.67.67V30a.66.66,0,0,1-.66.67h-6.09" fill="none" stroke="#949494" stroke-miterlimit="10" stroke-width="0.75"/><path d="M611.11,23.06h5.4a.68.68,0,0,1,.68.68v2h5.4a.68.68,0,0,1,.68.68v1.86h5.4a.68.68,0,0,1,.67.68V30a.74.74,0,0,0,.74.74h6" fill="none" stroke="#949494" stroke-miterlimit="10" stroke-width="0.75"/><line x2="63.13" transform="translate(577.34 53.45)" fill="none" stroke="#949494" stroke-miterlimit="10" stroke-width="0.75"/><line x2="87.08" transform="translate(565.36 57.22)" fill="none" stroke="#949494" stroke-linecap="round" stroke-miterlimit="10" stroke-width="0.75"/><path d="M577.34,68.73h35.1a.79.79,0,0,1,.79.79v5.26a.78.78,0,0,0,.78.79h26.46" fill="none" stroke="#949494" stroke-miterlimit="10" stroke-width="0.75"/><path d="M590,96.17v-8.4s.49-5.26,5.25-5.26V96.17Z" fill="none" stroke="#949494" stroke-miterlimit="10" stroke-width="0.75"/><path d="M595.25,96.17h5.26v-8.4s-.49-5.26-5.26-5.26" fill="none" stroke="#949494" stroke-miterlimit="10" stroke-width="0.75"/><path d="M584.38,96.17V89.11a13,13,0,0,1,.55-3.82c1-3.22,3.57-8.33,10.32-8.33,7.08,0,9.6,5.6,10.46,8.76a12.58,12.58,0,0,1,.42,3.29v7.16" fill="none" stroke="#949494" stroke-miterlimit="10" stroke-width="0.75"/><path d="M610.34,96.17V89a15.452,15.452,0,0,0-.4-3.52c-1-4.2-4.33-12.84-14.69-12.84-10.74,0-13.91,9.3-14.78,13.3a13.489,13.489,0,0,0-.3,2.84v7.41" fill="none" stroke="#949494" stroke-miterlimit="10" stroke-width="0.75"/><line x1="54.39" transform="translate(581.71 38.33)" fill="none" stroke="#949494" stroke-miterlimit="10" stroke-width="0.75"/><path d="M595.52,42.18a1.16,1.16,0,0,0-1.46-1.12,1.19,1.19,0,0,0-.86,1.17v7.58a.71.71,0,0,0,.71.71h.9a.71.71,0,0,0,.71-.71Z" fill="none" stroke="#949494" stroke-miterlimit="10" stroke-width="0.75"/><path d="M629.55,68.48a4.93,4.93,0,0,0-9.85,0v7.09h9.85Z" fill="none" stroke="#949494" stroke-miterlimit="10" stroke-width="0.75"/><path d="M629.55,89.08a4.93,4.93,0,0,0-9.85,0v7.09h9.85Z" fill="none" stroke="#949494" stroke-miterlimit="10" stroke-width="0.75"/><path d="M602.8,42.18a1.16,1.16,0,0,0-1.46-1.12,1.19,1.19,0,0,0-.86,1.17v7.58a.71.71,0,0,0,.71.71h.9a.71.71,0,0,0,.71-.71Z" fill="none" stroke="#949494" stroke-miterlimit="10" stroke-width="0.75"/><path d="M610.07,42.18a1.15,1.15,0,0,0-1.46-1.12,1.19,1.19,0,0,0-.86,1.17v7.58a.71.71,0,0,0,.71.71h.9a.71.71,0,0,0,.71-.71Z" fill="none" stroke="#949494" stroke-miterlimit="10" stroke-width="0.75"/><path d="M617.35,42.18a1.16,1.16,0,0,0-1.46-1.12,1.19,1.19,0,0,0-.86,1.17v7.58a.71.71,0,0,0,.71.71h.9a.71.71,0,0,0,.71-.71Z" fill="none" stroke="#949494" stroke-miterlimit="10" stroke-width="0.75"/><path d="M624.63,42.18a1.16,1.16,0,0,0-1.46-1.12,1.19,1.19,0,0,0-.87,1.17v7.58a.71.71,0,0,0,.71.71h.9a.71.71,0,0,0,.72-.71Z" fill="none" stroke="#949494" stroke-miterlimit="10" stroke-width="0.75"/><line y2="7.62" transform="translate(582.34 60.9)" fill="none" stroke="#949494" stroke-linecap="round" stroke-miterlimit="10" stroke-width="0.75"/><line y2="7.62" transform="translate(587.47 60.9)" fill="none" stroke="#949494" stroke-linecap="round" stroke-miterlimit="10" stroke-width="0.75"/><line y2="7.62" transform="translate(592.61 60.9)" fill="none" stroke="#949494" stroke-linecap="round" stroke-miterlimit="10" stroke-width="0.75"/><line y2="7.62" transform="translate(602.88 60.9)" fill="none" stroke="#949494" stroke-linecap="round" stroke-miterlimit="10" stroke-width="0.75"/><line y2="7.62" transform="translate(608.01 60.9)" fill="none" stroke="#949494" stroke-linecap="round" stroke-miterlimit="10" stroke-width="0.75"/><line y2="7.62" transform="translate(597.74 60.9)" fill="none" stroke="#949494" stroke-linecap="round" stroke-miterlimit="10" stroke-width="0.75"/><rect width="4.95" height="4.95" rx="0.51" transform="translate(595.52 30.7)" fill="none" stroke="#949494" stroke-miterlimit="10" stroke-width="0.75"/><rect width="4.95" height="4.95" rx="0.51" transform="translate(617.22 30.7)" fill="none" stroke="#949494" stroke-miterlimit="10" stroke-width="0.75"/><line x2="10.34" transform="translate(559.59 64.71)" fill="none" stroke="#949494" stroke-linecap="round" stroke-miterlimit="10" stroke-width="0.75"/><line x2="10.93" transform="translate(650.74 75.57)" fill="none" stroke="#949494" stroke-linecap="round" stroke-miterlimit="10" stroke-width="0.75"/><line x2="10.35" transform="translate(563.54 69.08)" fill="none" stroke="#949494" stroke-linecap="round" stroke-miterlimit="10" stroke-width="0.75"/><line x2="10.35" transform="translate(643.47 84.39)" fill="none" stroke="#949494" stroke-linecap="round" stroke-miterlimit="10" stroke-width="0.75"/><line x2="10.35" transform="translate(647.27 79.98)" fill="none" stroke="#949494" stroke-linecap="round" stroke-miterlimit="10" stroke-width="0.75"/><line x2="14.87" transform="translate(562.75 41.82)" fill="none" stroke="#949494" stroke-linecap="round" stroke-miterlimit="10" stroke-width="0.75"/><line x2="10.36" transform="translate(638.29 38.33)" fill="none" stroke="#949494" stroke-linecap="round" stroke-miterlimit="10" stroke-width="0.75"/><rect width="18.05" height="76.98" transform="translate(123.18 19.19)" fill="none" stroke="#949494" stroke-linecap="round" stroke-miterlimit="10" stroke-width="0.75"/><path d="M123.18,19.19V15.1h4.5V39.14" fill="none" stroke="#949494" stroke-linecap="round" stroke-miterlimit="10" stroke-width="0.75"/><path d="M136.73,19.19V15.1h4.5v4.09" fill="none" stroke="#949494" stroke-linecap="round" stroke-miterlimit="10" stroke-width="0.75"/><line x2="9.05" transform="translate(127.68 15.1)" fill="none" stroke="#949494" stroke-linecap="round" stroke-miterlimit="10" stroke-width="0.75"/><line y2="4.09" transform="translate(129.94 15.1)" fill="none" stroke="#949494" stroke-linecap="round" stroke-miterlimit="10" stroke-width="0.75"/><line y2="4.09" transform="translate(132.2 15.1)" fill="none" stroke="#949494" stroke-linecap="round" stroke-miterlimit="10" stroke-width="0.75"/><line y2="4.09" transform="translate(134.47 15.1)" fill="none" stroke="#949494" stroke-linecap="round" stroke-miterlimit="10" stroke-width="0.75"/><line y2="3.14" transform="translate(129.94 33.69)" fill="none" stroke="#949494" stroke-linecap="round" stroke-miterlimit="10" stroke-width="0.75"/><line y2="4.33" transform="translate(132.2 33.69)" fill="none" stroke="#949494" stroke-linecap="round" stroke-miterlimit="10" stroke-width="0.75"/><line y2="3.14" transform="translate(134.47 33.69)" fill="none" stroke="#949494" stroke-linecap="round" stroke-miterlimit="10" stroke-width="0.75"/><line y1="4.51" transform="translate(127.68 10.59)" fill="none" stroke="#949494" stroke-linecap="round" stroke-miterlimit="10" stroke-width="0.75"/><line y1="28.55" transform="translate(136.73 10.59)" fill="none" stroke="#949494" stroke-linecap="round" stroke-miterlimit="10" stroke-width="0.75"/><line x2="21.41" transform="translate(121.48 19.19)" fill="none" stroke="#949494" stroke-linecap="round" stroke-miterlimit="10" stroke-width="0.75"/><line x2="21.41" transform="translate(121.48 33.69)" fill="none" stroke="#949494" stroke-linecap="round" stroke-miterlimit="10" stroke-width="0.75"/><line x2="21.41" transform="translate(121.48 36.83)" fill="none" stroke="#949494" stroke-linecap="round" stroke-miterlimit="10" stroke-width="0.75"/><path d="M132.2,23.71a2.26,2.26,0,1,0-4.51,0v10h4.51Z" fill="none" stroke="#949494" stroke-linecap="round" stroke-miterlimit="10" stroke-width="0.75"/><path d="M136.73,23.7a2.27,2.27,0,0,0-4.53,0v10h4.53Z" fill="none" stroke="#949494" stroke-linecap="round" stroke-miterlimit="10" stroke-width="0.75"/><path d="M136.34,84.26a4.15,4.15,0,1,0-8.3,0V96.17h8.3Z" fill="none" stroke="#949494" stroke-linecap="round" stroke-linejoin="round" stroke-width="0.75"/><circle cx="2.35" cy="2.35" r="2.35" transform="translate(129.84 44.71)" fill="none" stroke="#949494" stroke-miterlimit="10" stroke-width="0.75"/><rect width="1.9" height="6.13" transform="translate(131.24 60.33)" fill="none" stroke="#949494" stroke-linecap="round" stroke-linejoin="round" stroke-width="0.75"/><rect width="4.73" height="9.49" transform="translate(129.82 86.68)" fill="none" stroke="#949494" stroke-linecap="round" stroke-linejoin="round" stroke-width="0.75"/><line x2="9.04" transform="translate(125.43 55.72)" fill="none" stroke="#949494" stroke-linecap="round" stroke-miterlimit="10" stroke-width="0.75"/><line x2="8.43" transform="translate(130.55 52.34)" fill="none" stroke="#949494" stroke-linecap="round" stroke-miterlimit="10" stroke-width="0.75"/><line x2="9.03" transform="translate(129.95 75.59)" fill="none" stroke="#949494" stroke-linecap="round" stroke-linejoin="round" stroke-width="0.75"/><line x2="6.76" transform="translate(125.43 72.19)" fill="none" stroke="#949494" stroke-linecap="round" stroke-linejoin="round" stroke-width="0.75"/><path d="M269.74,87.35c-.34-4-3.85-15.68-5.33-15.56s-4.74,13.44-4.4,17.47,2.69,7.11,5.25,6.9S270.07,91.38,269.74,87.35Z" fill="none" stroke="#949494" stroke-miterlimit="10" stroke-width="0.75"/><path d="M298.92,95.34c-1.37-3.48-4.71-6.57-8.59-6.57a9.265,9.265,0,0,0-2.048.23.6.6,0,0,1-.682-.31,13.19,13.19,0,0,0-10.15-6.78.56.56,0,0,1-.31-.15A4.49,4.49,0,0,0,274,80.51a4.54,4.54,0,0,0-3.46,1.61.5.5,0,0,1-.27.18c-3.59,1-6,3.49-7.36,7.43a.6.6,0,0,1-.82.35,5.62,5.62,0,0,0-2.32-.5,7.54,7.54,0,0,0-7.18,5.87.6.6,0,0,0,.6.72h45.14a.6.6,0,0,0,.59-.83Z" fill="#fff" stroke="#949494" stroke-miterlimit="10" stroke-width="0.75"/><path d="M447.84,87.35c.34-4,3.85-15.68,5.33-15.56s4.74,13.44,4.4,17.47-2.69,7.11-5.25,6.9S447.5,91.38,447.84,87.35Z" fill="none" stroke="#949494" stroke-miterlimit="10" stroke-width="0.75"/><path d="M419.8,95.34c1.38-3.48,4.72-6.57,8.59-6.57a9.13,9.13,0,0,1,2.05.23.61.61,0,0,0,.69-.31,13.19,13.19,0,0,1,10.14-6.78.51.51,0,0,0,.31-.15,4.51,4.51,0,0,1,6.57.36.57.57,0,0,0,.28.18c3.59,1,6,3.49,7.36,7.43a.6.6,0,0,0,.82.35,5.6,5.6,0,0,1,2.31-.5,7.53,7.53,0,0,1,7.18,5.87.6.6,0,0,1-.59.72H420.37a.61.61,0,0,1-.57-.83Z" fill="#fff" stroke="#949494" stroke-miterlimit="10" stroke-width="0.75"/><path d="M420.64,34.69a2.05,2.05,0,1,1,4.1,0" fill="none" stroke="#949494" stroke-linecap="round" stroke-miterlimit="10" stroke-width="0.75"/><path d="M416.55,34.69a2.045,2.045,0,0,1,4.09,0" fill="none" stroke="#949494" stroke-linecap="round" stroke-miterlimit="10" stroke-width="0.75"/><path d="M428.36,27.26a2.045,2.045,0,0,1,4.09,0" fill="none" stroke="#949494" stroke-linecap="round" stroke-miterlimit="10" stroke-width="0.75"/><path d="M424.27,27.26c0-1.13.92-2.5,2.05-2.5s2,1.37,2,2.5" fill="none" stroke="#949494" stroke-linecap="round" stroke-miterlimit="10" stroke-width="0.75"/><path d="M435.17,19.36a2.05,2.05,0,0,1,2.05-2.05c1.83,0,2.95.92,2.95,2.05" fill="none" stroke="#949494" stroke-linecap="round" stroke-miterlimit="10" stroke-width="0.75"/><path d="M431.08,19.36a2.045,2.045,0,0,1,4.09,0" fill="none" stroke="#949494" stroke-linecap="round" stroke-miterlimit="10" stroke-width="0.75"/><path d="M39.65,34a7.06,7.06,0,0,0-3.85.93.89.89,0,0,1-1.26-.38C33,31.32,29,29.37,25.26,29.37c-4.83,0-7.89,3.94-8.26,8.67a.9.9,0,0,0,.89,1h25.9a.9.9,0,0,0,.81-1.27C43.67,35.7,41.94,34,39.65,34Z" fill="none" stroke="#949494" stroke-miterlimit="10" stroke-width="0.75"/><path d="M649.43,95.34c1.37-3.48,4.71-6.57,8.59-6.57a9.2,9.2,0,0,1,2.05.23.59.59,0,0,0,.68-.31,13.19,13.19,0,0,1,10.15-6.78.53.53,0,0,0,.31-.15,4.49,4.49,0,0,1,3.11-1.25,4.54,4.54,0,0,1,3.46,1.61.54.54,0,0,0,.27.18c3.59,1,6,3.49,7.36,7.43a.61.61,0,0,0,.83.35,5.53,5.53,0,0,1,2.31-.5,7.54,7.54,0,0,1,7.18,5.87.6.6,0,0,1-.59.72H650a.61.61,0,0,1-.57-.83Z" fill="#fff" stroke="#949494" stroke-miterlimit="10" stroke-width="0.75"/><path d="M481.33,36.36a.86.86,0,0,1-.58-.23,11.19,11.19,0,0,0-3.47-2.2c-5.31-2.1-10.71,1.6-13.43,5.83a1.11,1.11,0,0,1-1.49.36A10.92,10.92,0,0,0,457,38.75c-4.17,0-8.4,3.29-8.06,8.25a1,1,0,0,0,1,1h34.44a1.14,1.14,0,0,0,1.14-1.27,23.232,23.232,0,0,0-.78-3.66.89.89,0,0,1,0-.62,5,5,0,0,0,.41-1.84C485.31,39.22,484,36.38,481.33,36.36Z" fill="none" stroke="#949494" stroke-miterlimit="10" stroke-width="0.75"/><circle cx="12.67" cy="12.67" r="12.67" transform="translate(272.51 11.32)" fill="none" stroke="#949494" stroke-miterlimit="10" stroke-width="0.75"/><line x2="10.18" y2="5.38" transform="translate(299.86 32.27)" fill="none" stroke="#949494" stroke-linecap="round" stroke-miterlimit="10" stroke-width="0.75"/><line x2="5.89" y2="1.96" transform="translate(301.01 28.87)" fill="none" stroke="#949494" stroke-linecap="round" stroke-miterlimit="10" stroke-width="0.75"/><line x2="3.43" y2="2.95" transform="translate(298.04 35.47)" fill="none" stroke="#949494" stroke-linecap="round" stroke-miterlimit="10" stroke-width="0.75"/><rect width="38.25" height="4.77" rx="0.44" transform="translate(476.25 91.4)" fill="none" stroke="#949494" stroke-miterlimit="10" stroke-width="0.75"/><path d="M490.52,91.4a3,3,0,0,1,3-3h3.18a3,3,0,0,1,3,3" fill="none" stroke="#949494" stroke-miterlimit="10" stroke-width="0.75"/><rect width="2.04" height="2.04" transform="translate(494.08 86.37)" fill="none" stroke="#949494" stroke-linejoin="round" stroke-width="0.75"/><line y1="11.89" transform="translate(495.1 60.26)" fill="none" stroke="#949494" stroke-linecap="round" stroke-linejoin="round" stroke-width="0.75"/><path d="M495.1,84s-1.36-14.79-4.93-20.59" fill="none" stroke="#949494" stroke-linecap="round" stroke-linejoin="round" stroke-width="0.75"/><path d="M495.1,84s1.36-14.79,4.93-20.59" fill="none" stroke="#949494" stroke-linecap="round" stroke-linejoin="round" stroke-width="0.75"/><path d="M492.73,80.08s-2.18-9.31-5.5-8.68" fill="none" stroke="#949494" stroke-linecap="round" stroke-linejoin="round" stroke-width="0.75"/><path d="M497.54,80.08s2.18-9.31,5.5-8.68" fill="none" stroke="#949494" stroke-linecap="round" stroke-linejoin="round" stroke-width="0.75"/><path d="M488.37,75.72s-2.57-2.71-3.93,3.57" fill="none" stroke="#949494" stroke-linecap="round" stroke-linejoin="round" stroke-width="0.75"/><path d="M501.48,75.72s2.57-2.71,3.92,3.57" fill="none" stroke="#949494" stroke-linecap="round" stroke-linejoin="round" stroke-width="0.75"/><line y2="4.77" transform="translate(495.1 91.4)" fill="none" stroke="#949494" stroke-miterlimit="10" stroke-width="0.75"/><line y2="4.77" transform="translate(485.53 91.4)" fill="none" stroke="#949494" stroke-miterlimit="10" stroke-width="0.75"/><line y2="4.77" transform="translate(504.62 91.4)" fill="none" stroke="#949494" stroke-miterlimit="10" stroke-width="0.75"/><path d="M569.13,95.34c-1.37-3.48-4.71-6.57-8.59-6.57a9.2,9.2,0,0,0-2,.23.59.59,0,0,1-.68-.31,13.19,13.19,0,0,0-10.15-6.78.53.53,0,0,1-.31-.15,4.49,4.49,0,0,0-3.11-1.25,4.54,4.54,0,0,0-3.46,1.61.54.54,0,0,1-.27.18c-3.59,1-6,3.49-7.36,7.43a.61.61,0,0,1-.83.35,5.57,5.57,0,0,0-2.31-.5,7.54,7.54,0,0,0-7.18,5.87.6.6,0,0,0,.59.72h45.15a.61.61,0,0,0,.51-.83Z" fill="#fff" stroke="#949494" stroke-miterlimit="10" stroke-width="0.75"/><path d="M171.55,84.55a.81.81,0,0,1-.58-.22,11,11,0,0,0-3.47-2.2c-5.31-2.1-10.71,1.6-13.43,5.83a1.11,1.11,0,0,1-1.49.36A10.92,10.92,0,0,0,147.23,87c-4.17,0-8.4,3.29-8.06,8.25a1,1,0,0,0,1,1h34.44a1.14,1.14,0,0,0,1.14-1.27,23,23,0,0,0-.78-3.66.89.89,0,0,1,.05-.62,5.05,5.05,0,0,0,.41-1.84C175.53,87.42,174.24,84.58,171.55,84.55Z" fill="#fff" stroke="#949494" stroke-miterlimit="10" stroke-width="0.75"/><path d="M46.63,65.65V96.17H70.92V65.65" fill="none" stroke="#949494" stroke-miterlimit="10" stroke-width="0.75"/><path d="M26.35,70.95V96.17H46.63V69.49" fill="none" stroke="#949494" stroke-miterlimit="10" stroke-width="0.75"/><path d="M91.2,70.95V96.17H70.92" fill="none" stroke="#949494" stroke-miterlimit="10" stroke-width="0.75"/><path d="M70.92,63c0-7.18-5-13-12.15-13S46.63,55.81,46.63,63v2.66H70.92Z" fill="none" stroke="#949494" stroke-miterlimit="10" stroke-width="0.75"/><path d="M70.92,68.32H91.84a.64.64,0,0,1,.49,1L91,71H70.92" fill="none" stroke="#949494" stroke-miterlimit="10" stroke-width="0.75"/><path d="M46.49,70.81H26.36L24.86,69a.48.48,0,0,1,.37-.78H46.49" fill="none" stroke="#949494" stroke-miterlimit="10" stroke-width="0.75"/><line x2="29.91" transform="translate(43.82 65.65)" fill="none" stroke="#949494" stroke-linecap="round" stroke-miterlimit="10" stroke-width="0.75"/><path d="M54.32,65.58S53.38,50,58.77,50V65.68" fill="none" stroke="#949494" stroke-miterlimit="10" stroke-width="0.75"/><path d="M49.81,65.71s-1-15.72,9-15.72" fill="none" stroke="#949494" stroke-miterlimit="10" stroke-width="0.75"/><path d="M63.21,65.58S64.15,50,58.76,50" fill="none" stroke="#949494" stroke-miterlimit="10" stroke-width="0.75"/><path d="M67.72,65.71s1-15.72-9-15.72" fill="none" stroke="#949494" stroke-miterlimit="10" stroke-width="0.75"/><rect width="6.76" height="13.24" rx="0.59" transform="translate(33.11 76.33)" fill="none" stroke="#949494" stroke-miterlimit="10" stroke-width="0.75"/><rect width="6.76" height="13.24" rx="0.61" transform="translate(77.67 76.53)" fill="none" stroke="#949494" stroke-miterlimit="10" stroke-width="0.75"/><line x2="5.53" transform="translate(26.35 73.58)" fill="none" stroke="#949494" stroke-linecap="round" stroke-miterlimit="10" stroke-width="0.75"/><line x2="3.43" transform="translate(27.8 75.78)" fill="none" stroke="#949494" stroke-linecap="round" stroke-miterlimit="10" stroke-width="0.75"/><line x2="7.24" transform="translate(39.39 93.15)" fill="none" stroke="#949494" stroke-linecap="round" stroke-miterlimit="10" stroke-width="0.75"/><line x2="24.29" transform="translate(46.63 69.64)" fill="none" stroke="#949494" stroke-miterlimit="10" stroke-width="0.75"/><line x2="24.29" transform="translate(46.63 73.01)" fill="none" stroke="#949494" stroke-miterlimit="10" stroke-width="0.75"/><line x2="6.53" transform="translate(46.63 87.81)" fill="none" stroke="#949494" stroke-linecap="round" stroke-miterlimit="10" stroke-width="0.75"/><line x2="4.83" transform="translate(51.69 83.56)" fill="none" stroke="#949494" stroke-linecap="round" stroke-miterlimit="10" stroke-width="0.75"/><line x1="5.79" transform="translate(65.13 79.45)" fill="none" stroke="#949494" stroke-linecap="round" stroke-miterlimit="10" stroke-width="0.75"/><line x1="8.84" transform="translate(62.08 93.15)" fill="none" stroke="#949494" stroke-linecap="round" stroke-miterlimit="10" stroke-width="0.75"/><path d="M19,91.1a7.06,7.06,0,0,1,3.85.93.89.89,0,0,0,1.26-.38c1.59-3.18,5.5-5.13,9.28-5.13,4.83,0,7.89,3.94,8.26,8.67a.9.9,0,0,1-.89,1H14.85A.9.9,0,0,1,14,94.9C15,92.85,16.7,91.1,19,91.1Z" fill="#fff" stroke="#949494" stroke-miterlimit="10" stroke-width="0.75"/><path d="M100.48,87.35c.34-4,3.85-15.68,5.33-15.56s4.74,13.44,4.4,17.47-2.69,7.11-5.25,6.9S100.15,91.38,100.48,87.35Z" fill="none" stroke="#949494" stroke-miterlimit="10" stroke-width="0.75"/><path d="M71.3,95.34c1.37-3.48,4.71-6.57,8.59-6.57a9.271,9.271,0,0,1,2,.23.6.6,0,0,0,.68-.31,13.19,13.19,0,0,1,10.15-6.78.56.56,0,0,0,.31-.15,4.49,4.49,0,0,1,3.11-1.25,4.54,4.54,0,0,1,3.46,1.61.5.5,0,0,0,.27.18c3.59,1,6,3.49,7.36,7.43a.6.6,0,0,0,.82.35,5.62,5.62,0,0,1,2.32-.5,7.54,7.54,0,0,1,7.18,5.87.6.6,0,0,1-.6.72H71.86a.6.6,0,0,1-.56-.83Z" fill="#fff" stroke="#949494" stroke-miterlimit="10" stroke-width="0.75"/><path d="M527.39,60.63a2.05,2.05,0,1,0-4.1,0" fill="none" stroke="#949494" stroke-linecap="round" stroke-miterlimit="10" stroke-width="0.75"/><path d="M531.48,60.63c0-1.13-.92-2.51-2.05-2.51s-2,1.38-2,2.51" fill="none" stroke="#949494" stroke-linecap="round" stroke-miterlimit="10" stroke-width="0.75"/><path d="M519.15,54.76a2,2,0,0,0-2-2c-1.83,0-3,.91-3,2" fill="none" stroke="#949494" stroke-linecap="round" stroke-miterlimit="10" stroke-width="0.75"/><path d="M523.24,54.76a2.045,2.045,0,0,0-4.09,0" fill="none" stroke="#949494" stroke-linecap="round" stroke-miterlimit="10" stroke-width="0.75"/></g><path d="M228.42,116.19v13.38h20.82v12.31H228.42v22h-14V103.3h38.33v12.89Z" fill="#e8306e"/><path d="M264.1,163.85V103.3h14v47.75h24.29v12.8Z" fill="#e8306e"/><path d="M349.85,163.85l-4.54-11h-20.9l-4.54,11h-14.3l28.5-61H336l28.5,61.05Zm-15-36.27-6,14.54h12Z" fill="#e8306e"/><path d="M422,163.85l-.74-29.74-16.78,21.23H403l-17-21.23-.57,29.74H371.9l2.81-61,1.9-.16L404,137.34l26.76-34.61,1.9.16,2.89,61Z" fill="#e8306e"/><path d="M450.87,163.85V103.3h14v60.55Z" fill="#e8306e"/><path d="M531.58,165l-36.52-32.79v31.64H481V102.48l1.9-.33,36,32.54V103.3h14v61.46Z" fill="#e8306e"/><path d="M601.37,129.82v28.91a43.61,43.61,0,0,1-23,6.11c-17.76,0-31.8-12.72-31.8-31.22s14.21-31.31,32.54-31.31a42.3,42.3,0,0,1,20.32,5.2l-5.86,11.32a29.5,29.5,0,0,0-13.55-3.39c-12.06,0-18.5,7.52-18.5,18.18,0,11.56,7.76,18.75,17.68,18.75,4.46,0,6.69-.5,8.92-1.65V141.8H576v-12Z" fill="#e8306e"/><path d="M615.17,163.85V103.3h14v47.75H653.5v12.8Z" fill="#e8306e"/><path d="M664.07,163.85V103.3H702.4v12.89H678.11V127h22.14v12.23H678.11v11.81H702.4v12.8Z" fill="#e8306e"/><line y1="0.57" x2="712" transform="translate(1.33 95.88)" fill="#f2f2f2" stroke="#949494" stroke-miterlimit="10" stroke-width="0.75"/><path d="M238.1,16.68s3.26.73,3.62,6.22.51,9.65.51,9.65a1,1,0,0,1-.8,1.21c-1,.18-4.4-8.11-7.48-10"/><path d="M224.72,72a8.07,8.07,0,0,0,1.11-.07c3.8-.46,7.23-3.45,8.76-7.64,2-5.45.81-12.22-3.18-18.13a58.91,58.91,0,0,0-9.17-10c-.8-.74-1.63-1.5-2.42-2.26a27.919,27.919,0,0,1-5.24-6.27,9.42,9.42,0,0,1-1.24-6.6,10.61,10.61,0,0,1,5.26-6.26c1.82-1,3-1.17,3.41-1l2.47-5.64c-2.49-1.09-5.48-.67-8.9,1.25a16.65,16.65,0,0,0-8.23,10.22,15.5,15.5,0,0,0,1.84,11,33.6,33.6,0,0,0,6.37,7.74L218,40.76a53.55,53.55,0,0,1,8.26,8.89c2.88,4.27,3.82,9,2.5,12.57-.6,1.66-2,3.44-3.71,3.64s-3.54-.93-5.54-2.21l-3.32,5.19C218.27,70.13,221.26,72,224.72,72Z" fill="#e8306e"/><path d="M216.36,15.87c2.7,3.23,12.52,5.67,16,3.32.83-.55-1.56-9.17-3.36-11.84a4.44,4.44,0,0,0-4.5-2,17,17,0,0,0-5.5,1.5C214.36,8.66,212.61,11.39,216.36,15.87Z" fill="#f5b6cd"/><path d="M216,16.16h0c-1.78-2.12-2.44-3.95-2-5.59s2-3.05,4.8-4.15l.47-.18a16,16,0,0,1,5.21-1.37,4.89,4.89,0,0,1,4.94,2.22,29.14,29.14,0,0,1,2.72,6.85c1.41,5,.76,5.47.51,5.63a7.85,7.85,0,0,1-4.34,1C223.82,20.58,218,18.59,216,16.16Zm16.06,2.68c.34-1.06-1.67-8.61-3.43-11.24a4,4,0,0,0-4.07-1.81,15.24,15.24,0,0,0-5,1.31l-.47.18c-2.48,1-3.91,2.16-4.26,3.52s.29,2.91,1.84,4.77h0c3,3.56,12.41,5.15,15.35,3.28Z" fill="#f5b6cd"/><path d="M201.93,74.68h-8.21l4.1,7.1,4.11,7.1,4.1-7.1,4.1-7.1Z" fill="#e8306e"/><path d="M193.53,74.56h16.79l-8.39,14.55Zm.39.23,8,13.87,8-13.87Z" fill="#e8306e"/><path d="M194,74.68h-8.2l4.1,7.1,4.1,7.1,4.11-7.1,4.1-7.1Z" fill="#e8306e"/><path d="M185.6,74.56h16.79L194,89.11Zm.39.23,8,13.87,8-13.87Z" fill="#e8306e"/><path d="M207.75,79H149.16c39.4-34,41.48-35.66,42.48-36.37A20.11,20.11,0,0,1,216.72,74a21,21,0,0,1-8.97,5Z" fill="#f5b6cd"/><rect width="1.9" height="31.19" transform="translate(200.84 86.03)" fill="#e8306e"/><path d="M200.69,85.88h2.2v31.5h-2.2Zm1.9.31H201v30.88h1.59Z" fill="#e8306e"/><rect width="1.9" height="44" transform="translate(200.84 119.66)" fill="#e8306e"/><path d="M200.66,119.48h2.27v44.37h-2.27Zm1.89.37H201v33.29h1.52Z" fill="#e8306e"/><circle cx="3.03" cy="3.03" r="3.03" transform="translate(198.76 114.48)" fill="#e8306e"/><path d="M198.6,117.52a3.19,3.19,0,1,1,3.19,3.18,3.19,3.19,0,0,1-3.19-3.18Zm3.19-2.89a2.88,2.88,0,0,0-2.88,2.89h0a2.88,2.88,0,1,0,2.88-2.89Z" fill="#e8306e"/><rect width="1.9" height="31.19" transform="translate(192.91 86.03)" fill="#e8306e"/><path d="M192.76,85.88H195v31.5h-2.2Zm1.89.31h-1.59v30.88h1.59Z" fill="#e8306e"/><rect width="1.9" height="44" transform="translate(192.91 119.66)" fill="#e8306e"/><path d="M192.73,119.48H195v44.37h-2.28Zm1.89.37H193.1v33.29h1.52Z" fill="#e8306e"/><circle cx="3.03" cy="3.03" r="3.03" transform="translate(190.83 114.48)" fill="#e8306e"/><path d="M190.67,117.52a3.19,3.19,0,1,1,3.19,3.18,3.19,3.19,0,0,1-3.19-3.18Zm3.19-2.89a2.88,2.88,0,0,0-2.88,2.89h0a2.88,2.88,0,1,0,2.88-2.89Z" fill="#e8306e"/><ellipse cx="4.17" cy="4.11" rx="4.17" ry="4.11" transform="translate(221.759 17.875) rotate(-84.55)" fill="#e8306e"/><rect width="8.02" height="11.87" transform="translate(223.926 17.389) rotate(-58.07)" fill="#e8306e"/><path d="M223.85,17.47l-.09-.06,4.36-7,10.17,6.34.09.06-4.36,7Zm4.34-6.75-4.12,6.62L234,23.5l4.12-6.62Z" fill="#e8306e"/><circle cx="1.91" cy="1.91" r="1.91" transform="translate(224.06 11.92)" fill="#fff"/><path d="M225.76,16a2.22,2.22,0,0,1-2-2.42h0A2.22,2.22,0,1,1,226,16.05Zm-1.38-2.36a1.61,1.61,0,1,0,1.75-1.45H226a1.62,1.62,0,0,0-1.62,1.49Z" fill="#f39ab9"/><circle cx="0.97" cy="0.97" r="0.97" transform="translate(224.6 12.88)"/><path d="M225.47,14.92a1.06,1.06,0,0,1-1-1.17h0a1.07,1.07,0,1,1,1.07,1.18Zm.1-1.93a.86.86,0,0,0-.85.77h0a.88.88,0,0,0,.19.63.86.86,0,0,0,1.21.12.89.89,0,0,0,.3-.58.84.84,0,0,0-.76-.93h-.09Z"/><circle cx="0.31" cy="0.31" r="0.31" transform="translate(225.4 13.38)" fill="#fff"/><g clip-path="url(#b)"><path d="M197,70.13H159.49c25.23-21.78,26.56-22.83,27.2-23.29a12.88,12.88,0,0,1,16.06,20.09A13.49,13.49,0,0,1,197,70.13Z" fill="#e8306e"/><path d="M178.68,52h17.59a.46.46,0,1,0,0-.92H178.68a.46.46,0,0,0-.47.45.47.47,0,0,0,.46.47Z" fill="#fff"/><path d="M174.1,56.26h22.17a.46.46,0,1,0,0-.92H174.1a.46.46,0,0,0-.46.46.47.47,0,0,0,.46.46Z" fill="#fff"/><path d="M168.71,60.53h27.56a.46.46,0,1,0,0-.92H168.71a.46.46,0,0,0-.46.46A.47.47,0,0,0,168.71,60.53Z" fill="#fff"/><path d="M164.44,64.8h31.83a.46.46,0,1,0,0-.92H164.44a.46.46,0,1,0-.01.92Z" fill="#fff"/></g><path d="M53.55,163.83l-4.55-11H28.11l-4.55,11H9.27l28.5-61h1.9l28.5,61ZM38.6,127.57l-6,14.53h12Z" fill="#e8306e"/><path d="M94.55,164.82a40.85,40.85,0,0,1-20.4-6.2L78,145.9a30.19,30.19,0,0,0,17,5.87c5,0,6.85-2.32,6.85-5.29,0-3.14-1.57-5.29-10.82-9-10.65-4.3-14.37-10.49-14.37-17.76,0-8.84,7.19-17.43,21.31-17.43,6.61,0,13.38,2.31,16.93,4.71l-3.55,12.55c-3.47-2.39-9.08-5-13.38-5-5.12,0-7.19,2.39-7.19,4.87,0,4,3.06,5.29,10.66,8.51,11.32,4.79,14.7,10.24,14.7,18C116.11,155.65,109.09,164.82,94.55,164.82Z" fill="#e8306e"/><path d="M165.31,163.83,143.1,135.5v28.33h-14V103.28h14v26.35l21.22-26.35h16.6l-24.86,28.83,26.19,31.72Z" fill="#e8306e"/></g></svg>