<svg xmlns="http://www.w3.org/2000/svg" viewBox="0 0 49 76"><defs><style>.cls-1{fill:#fff;}.cls-2{fill:#c5050c;}</style></defs><title>Crest_RGB_red-flush-web2</title><g id="Layer_1" data-name="Layer 1"><path class="cls-1" d="M24.5,74.76a3.12,3.12,0,0,1-.89-1l-.06-.08-.09,0C8.1,70.1-.46,46.51,1.47,27.58a39.88,39.88,0,0,1,1.09-6.15,29.35,29.35,0,0,1,2-5.42,20.07,20.07,0,0,1,3.18-4.79,12.46,12.46,0,0,1,9.12-4.35c.08,0,.3,0,.32-.21a4.66,4.66,0,0,1,3.29-2.23l.16,0,0-.16a4,4,0,0,1,3.86-3,4,4,0,0,1,3.87,3l0,.16.16,0a4.67,4.67,0,0,1,3.28,2.23c0,.21.24.22.31.22a12.46,12.46,0,0,1,9.13,4.35,20.61,20.61,0,0,1,3.6,5.69l.19.47a36.07,36.07,0,0,1,2.45,10.2c1.93,18.93-6.63,42.52-22,46.1l-.09,0-.06.08A3.12,3.12,0,0,1,24.5,74.76Z"/><path class="cls-2" d="M47.75,27.56A43.18,43.18,0,0,0,47,22.89a35.36,35.36,0,0,0-1.18-4.17A27.57,27.57,0,0,0,44,14.54a19.12,19.12,0,0,0-2.51-3.48,12.66,12.66,0,0,0-9.29-4.43h-.07a4.9,4.9,0,0,0-3.53-2.47,4.18,4.18,0,0,0-8.1,0,4.9,4.9,0,0,0-3.53,2.47h-.07a12.66,12.66,0,0,0-9.29,4.43,19.12,19.12,0,0,0-2.51,3.48,27.57,27.57,0,0,0-1.89,4.18A35.36,35.36,0,0,0,2,22.89a43.18,43.18,0,0,0-.73,4.67C-.7,46.73,7.92,70.3,23.43,73.91c.23.36.77,1.09,1.07,1.09s.84-.73,1.07-1.09C41.08,70.3,49.7,46.73,47.75,27.56ZM24.5,1.74a3.33,3.33,0,0,1,3.33,2.34,4.1,4.1,0,0,0-3.27,2.09s0,.08-.06.08-.05-.06-.06-.08a4.1,4.1,0,0,0-3.27-2.09A3.33,3.33,0,0,1,24.5,1.74ZM22.92,5.38a2.91,2.91,0,0,1,1.35,1.78c.06.22.14.35.23.35s.17-.13.23-.35a2.91,2.91,0,0,1,1.35-1.78,3.54,3.54,0,0,1,5.11,1.34,13.1,13.1,0,0,0-1.41.35,5.76,5.76,0,0,0-2,1.12,8,8,0,0,0-2.58,5.17c-.57,6.2,6.54,5.23,6.9,5.2.92,0,1.61-1.45,1.61-3.37s-.71-3.36-1.61-3.36c-.55,0-1.5.44-1.59,2.16-.06,1.2.53,2.81,1.29,2.91.4.05.76-.65.87-1.36s.05-1.58-.5-1.72a.32.32,0,0,0-.4.24c0,.15.34.42.33,1.13,0,1.06-1.09.53-.94-1.15.12-1.49.89-1.4.92-1.4.43,0,1.07.89,1.07,2.55,0,1.49-.72,3.08-2.08,2.25a4.46,4.46,0,0,1-1.29-4.28c.15-.69.74-2.56,2.65-2.56,2.77,0,5.34,1.45,7.39,4.15-.22.73-1.65,3.48-6.17,6.12-.1,0-.24.13-.25.12a9.25,9.25,0,0,0-4.18-.82,22.8,22.8,0,0,0-3.93.62,3.53,3.53,0,0,1-.78.13h0a3.53,3.53,0,0,1-.78-.13,22.8,22.8,0,0,0-3.93-.62,9.25,9.25,0,0,0-4.18.82s-.15-.08-.25-.12c-4.52-2.64-5.95-5.39-6.17-6.12,2.05-2.7,4.62-4.15,7.39-4.15,1.91,0,2.5,1.87,2.65,2.56a4.46,4.46,0,0,1-1.29,4.28c-1.36.83-2.08-.76-2.08-2.25,0-1.66.64-2.55,1.07-2.55,0,0,.8-.09.92,1.4.15,1.68-.92,2.21-.94,1.15,0-.71.37-1,.33-1.13a.32.32,0,0,0-.4-.24c-.55.14-.6,1.1-.5,1.72s.47,1.41.87,1.36c.76-.1,1.35-1.71,1.29-2.91-.09-1.72-1-2.16-1.59-2.16-.9,0-1.61,1.44-1.61,3.36s.69,3.37,1.61,3.37c.36,0,7.47,1,6.9-5.2a8,8,0,0,0-2.58-5.17,5.76,5.76,0,0,0-2-1.12,13.1,13.1,0,0,0-1.41-.35A3.54,3.54,0,0,1,22.92,5.38Zm-13.44,26a24.64,24.64,0,0,0-.27,2.8A38,38,0,0,0,10.94,47.1,42.26,42.26,0,0,0,14.45,55a9.68,9.68,0,0,1-4.36,2A56.39,56.39,0,0,1,4.61,30,13.82,13.82,0,0,0,9.48,31.37ZM4.63,29.51c.37-6.2,2-11.07,4.23-14.31.4,1.05,2.18,3.69,6.26,6.09-3.47,2.09-5,6.41-5.57,9.63A13.53,13.53,0,0,1,4.63,29.51ZM14.68,55.4A27.55,27.55,0,0,0,21.84,64a9.69,9.69,0,0,1-3,3.69A27.39,27.39,0,0,1,10.3,57.4,9.9,9.9,0,0,0,14.68,55.4Zm7.55,8.87a10.69,10.69,0,0,0,2.27,1.25,10.69,10.69,0,0,0,2.27-1.25,10.14,10.14,0,0,0,3,3.68,15.3,15.3,0,0,1-3,1.51s0-.07,0-.11C26.49,68.23,25,68,24.5,68s-2,.23-2.21,1.35c0,0,0,.08,0,.11a15.3,15.3,0,0,1-3-1.51A10.14,10.14,0,0,0,22.23,64.27ZM27.16,64a27.55,27.55,0,0,0,7.16-8.6,9.9,9.9,0,0,0,4.38,2,27.39,27.39,0,0,1-8.54,10.29A9.69,9.69,0,0,1,27.16,64Zm7.39-9a42.26,42.26,0,0,0,3.51-7.9,37.46,37.46,0,0,0,1.4-6.21,37.8,37.8,0,0,0,.33-6.72,24.64,24.64,0,0,0-.27-2.8A13.82,13.82,0,0,0,44.39,30a56.39,56.39,0,0,1-5.48,27A9.68,9.68,0,0,1,34.55,55Zm4.9-24.08c-.53-3.22-2.12-7.46-5.57-9.63,4.08-2.4,5.86-5,6.26-6.09,2.28,3.24,3.86,8.11,4.23,14.31A13.53,13.53,0,0,1,39.45,30.92ZM22,72.55a19.92,19.92,0,0,1-5-2.48,22.81,22.81,0,0,1-2.75-2.22,26.29,26.29,0,0,1-2-2.09c-.42-.5-.83-1-1.23-1.54A40.35,40.35,0,0,1,6.29,56a54.59,54.59,0,0,1-2.9-8.65,61,61,0,0,1-1.52-9.19A54.24,54.24,0,0,1,1.82,29c.13-1.64.33-3.27.62-4.89a35.31,35.31,0,0,1,1.21-4.76,26.87,26.87,0,0,1,1.79-4.12A17.41,17.41,0,0,1,8.1,11.45a13.81,13.81,0,0,1,3.36-2.63,11.45,11.45,0,0,1,1.64-.74q.44-.15.87-.27a5.39,5.39,0,0,1,.88-.22A11.22,11.22,0,0,1,17,7.41a6.39,6.39,0,0,1,3.29.89,6.76,6.76,0,0,1,2.82,5.12c.34,3.83-3.56,4.44-4.33,4.43-.11,0-.18-.11.2-.5A5.54,5.54,0,0,0,19.89,13a3.58,3.58,0,0,0-3.4-3.13,9.5,9.5,0,0,0-6.88,3.3,19.32,19.32,0,0,0-3.79,6.67A36,36,0,0,0,4,29.51a53.29,53.29,0,0,0,.2,9,57,57,0,0,0,1.65,9,51.7,51.7,0,0,0,3,8.36,37.09,37.09,0,0,0,4.64,7.65,22,22,0,0,0,6.9,5.83,15.52,15.52,0,0,0,1.87.81,5.73,5.73,0,0,0,.56,2.63A6.21,6.21,0,0,1,22,72.55Zm2.79,1.31a.28.28,0,0,1-.52,0A5.48,5.48,0,0,1,23,69.48c.11-.54,1-.79,1.55-.79s1.44.25,1.55.79A5.48,5.48,0,0,1,24.76,73.86ZM47.13,38.17a61,61,0,0,1-1.52,9.19A54.59,54.59,0,0,1,42.71,56,40.35,40.35,0,0,1,38,64.22c-.4.52-.81,1-1.23,1.54a26.29,26.29,0,0,1-2,2.09A22.81,22.81,0,0,1,32,70.07a19.92,19.92,0,0,1-5,2.48,6.21,6.21,0,0,1-.79.24,5.73,5.73,0,0,0,.56-2.63,15.52,15.52,0,0,0,1.87-.81,22,22,0,0,0,6.9-5.83,37.09,37.09,0,0,0,4.64-7.65,51.7,51.7,0,0,0,3-8.36,57,57,0,0,0,1.65-9,53.29,53.29,0,0,0,.2-9,36,36,0,0,0-1.87-9.65,19.32,19.32,0,0,0-3.79-6.67,9.5,9.5,0,0,0-6.88-3.3A3.58,3.58,0,0,0,29.11,13,5.54,5.54,0,0,0,30,17.35c.38.39.31.5.2.5-.77,0-4.67-.6-4.33-4.43A6.76,6.76,0,0,1,28.69,8.3,6.39,6.39,0,0,1,32,7.41a11.22,11.22,0,0,1,2.17.18,6.29,6.29,0,0,1,.88.22l.87.27a11.45,11.45,0,0,1,1.64.74,13.81,13.81,0,0,1,3.36,2.63,17.41,17.41,0,0,1,2.66,3.76,26.87,26.87,0,0,1,1.79,4.12,35.31,35.31,0,0,1,1.21,4.76c.29,1.62.49,3.25.62,4.89A54.24,54.24,0,0,1,47.13,38.17Z"/><path class="cls-2" d="M39,34.29c-.1-2.27-.76-9.23-5.5-12.25a8,8,0,0,0-3.71-1c-2.33-.15-4,.74-5.21.77h-.06c-1.16,0-2.89-.92-5.22-.77a7.94,7.94,0,0,0-3.7,1c-4.74,3-5.4,10-5.5,12.25a36.88,36.88,0,0,0,3,16.1c3.28,7.22,7.23,12.32,11.14,14l.31.14.31-.14c3.91-1.73,7.86-6.83,11.14-14A36.88,36.88,0,0,0,39,34.29Z"/><path class="cls-1" d="M31.53,28.82V30.4l.32,0H32a1,1,0,0,1,.69.24,1.08,1.08,0,0,1,.19.94s-3.17,13.72-3.77,16.34c-.7-3.31-4.46-21.35-4.46-21.35l0-.07h-.75v.08S21.15,44.08,20.6,47.59L16.85,31.53c0-.08,0-.16,0-.23a1.11,1.11,0,0,1,.26-.81.87.87,0,0,1,.62-.19l.31.05V28.82H12.74v1.49l.23,0a1,1,0,0,1,.81.7S20,57.62,20.23,58.75l0,.08h.93v-.08c0-.19,2.55-16.67,3-19.76.59,3.07,3.8,19.58,3.84,19.76v.08h.83L35,31a.83.83,0,0,1,.86-.64H36l.3,0V28.82Z"/></g></svg>