<svg id="Layer_1" data-name="Layer 1" xmlns="http://www.w3.org/2000/svg" xmlns:xlink="http://www.w3.org/1999/xlink" viewBox="0 0 139 126"><defs><style>.cls-1,.cls-3,.cls-6{fill:none;}.cls-2{clip-path:url(#clip-path);}.cls-3,.cls-6{stroke:#fff;}.cls-4{clip-path:url(#clip-path-2);}.cls-5{clip-path:url(#clip-path-3);}.cls-6{stroke-width:0.5px;}</style><clipPath id="clip-path"><rect class="cls-1" x="1.06" y="200" width="278" height="252"/></clipPath><clipPath id="clip-path-2"><rect class="cls-1" x="601.06" y="200" width="278" height="252"/></clipPath><clipPath id="clip-path-3"><rect class="cls-1" width="139" height="126"/></clipPath></defs><g id="Group_3229" data-name="Group 3229"><g class="cls-2"><g id="Group_1962-2" data-name="Group 1962-2"><g id="Group_1956-2" data-name="Group 1956-2"><line id="Line_1605-2" data-name="Line 1605-2" class="cls-3" x1="907.09" y1="-391.3" x2="-312.64" y2="731.01"/><line id="Line_1635-2" data-name="Line 1635-2" class="cls-3" x1="406.51" y1="-391.3" x2="-813.22" y2="731.01"/><line id="Line_1622-2" data-name="Line 1622-2" class="cls-3" x1="656.8" y1="-391.3" x2="-562.93" y2="731.01"/><line id="Line_1615-2" data-name="Line 1615-2" class="cls-3" x1="781.94" y1="-391.3" x2="-437.79" y2="731.01"/><line id="Line_1623-2" data-name="Line 1623-2" class="cls-3" x1="531.66" y1="-391.3" x2="-688.07" y2="731.01"/><line id="Line_1611-2" data-name="Line 1611-2" class="cls-3" x1="844.51" y1="-391.3" x2="-375.22" y2="731.01"/><line id="Line_1639-2" data-name="Line 1639-2" class="cls-3" x1="343.94" y1="-391.3" x2="-875.79" y2="731.01"/><line id="Line_1624-2" data-name="Line 1624-2" class="cls-3" x1="594.23" y1="-391.3" x2="-625.5" y2="731.01"/><line id="Line_1616-2" data-name="Line 1616-2" class="cls-3" x1="719.37" y1="-391.3" x2="-500.36" y2="731.01"/><line id="Line_1625-2" data-name="Line 1625-2" class="cls-3" x1="469.08" y1="-391.3" x2="-750.65" y2="731.01"/><line id="Line_1607-2" data-name="Line 1607-2" class="cls-3" x1="886.23" y1="-391.3" x2="-333.5" y2="731.01"/><line id="Line_1643-2" data-name="Line 1643-2" class="cls-3" x1="385.65" y1="-391.3" x2="-834.08" y2="731.01"/><line id="Line_1626-2" data-name="Line 1626-2" class="cls-3" x1="635.94" y1="-391.3" x2="-583.79" y2="731.01"/><line id="Line_1617-2" data-name="Line 1617-2" class="cls-3" x1="761.09" y1="-391.3" x2="-458.64" y2="731.01"/><line id="Line_1627-2" data-name="Line 1627-2" class="cls-3" x1="510.8" y1="-391.3" x2="-708.93" y2="731.01"/><line id="Line_1612-2" data-name="Line 1612-2" class="cls-3" x1="823.66" y1="-391.3" x2="-396.07" y2="731.01"/><line id="Line_1628-2" data-name="Line 1628-2" class="cls-3" x1="573.37" y1="-391.3" x2="-646.36" y2="731.01"/><line id="Line_1618-2" data-name="Line 1618-2" class="cls-3" x1="698.51" y1="-391.3" x2="-521.22" y2="731.01"/><line id="Line_1629-2" data-name="Line 1629-2" class="cls-3" x1="448.23" y1="-391.3" x2="-771.5" y2="731.01"/><line id="Line_1609-2" data-name="Line 1609-2" class="cls-3" x1="865.37" y1="-391.3" x2="-354.36" y2="731.01"/><line id="Line_1651-2" data-name="Line 1651-2" class="cls-3" x1="364.8" y1="-391.3" x2="-854.93" y2="731.01"/><line id="Line_1630-2" data-name="Line 1630-2" class="cls-3" x1="615.08" y1="-391.3" x2="-604.65" y2="731.01"/><line id="Line_1619-2" data-name="Line 1619-2" class="cls-3" x1="740.23" y1="-391.3" x2="-479.5" y2="731.01"/><line id="Line_1631-2" data-name="Line 1631-2" class="cls-3" x1="489.94" y1="-391.3" x2="-729.79" y2="731.01"/><line id="Line_1613-2" data-name="Line 1613-2" class="cls-3" x1="802.8" y1="-391.3" x2="-416.93" y2="731.01"/><line id="Line_1632-2" data-name="Line 1632-2" class="cls-3" x1="552.51" y1="-391.3" x2="-667.22" y2="731.01"/><line id="Line_1620-2" data-name="Line 1620-2" class="cls-3" x1="677.66" y1="-391.3" x2="-542.07" y2="731.01"/><line id="Line_1633-2" data-name="Line 1633-2" class="cls-3" x1="427.37" y1="-391.3" x2="-792.36" y2="731.01"/></g></g></g></g><g id="Group_3229-2" data-name="Group 3229"><g class="cls-4"><g id="Group_1962-2-2" data-name="Group 1962-2"><g id="Group_1956-2-2" data-name="Group 1956-2"><line id="Line_1605-2-2" data-name="Line 1605-2" class="cls-3" x1="-26.96" y1="1043.31" x2="1192.77" y2="-79"/><line id="Line_1615-2-2" data-name="Line 1615-2" class="cls-3" x1="98.19" y1="1043.31" x2="1317.92" y2="-79"/><line id="Line_1611-2-2" data-name="Line 1611-2" class="cls-3" x1="35.61" y1="1043.31" x2="1255.34" y2="-79"/><line id="Line_1607-2-2" data-name="Line 1607-2" class="cls-3" x1="-6.1" y1="1043.31" x2="1213.63" y2="-79"/><line id="Line_1617-2-2" data-name="Line 1617-2" class="cls-3" x1="119.04" y1="1043.31" x2="1338.77" y2="-79"/><line id="Line_1612-2-2" data-name="Line 1612-2" class="cls-3" x1="56.47" y1="1043.31" x2="1276.2" y2="-79"/><line id="Line_1609-2-2" data-name="Line 1609-2" class="cls-3" x1="14.76" y1="1043.31" x2="1234.49" y2="-79"/><line id="Line_1613-2-2" data-name="Line 1613-2" class="cls-3" x1="77.33" y1="1043.31" x2="1297.06" y2="-79"/></g></g></g></g><g id="Group_3229-3" data-name="Group 3229"><g class="cls-5"><g id="Group_1962-2-3" data-name="Group 1962-2"><g id="Group_1956-2-3" data-name="Group 1956-2"><line id="Line_1605-2-3" data-name="Line 1605-2" class="cls-6" x1="453.01" y1="-295.65" x2="-156.85" y2="265.5"/><line id="Line_1635-2-2" data-name="Line 1635-2" class="cls-6" x1="202.72" y1="-295.65" x2="-407.14" y2="265.5"/><line id="Line_1622-2-2" data-name="Line 1622-2" class="cls-6" x1="327.87" y1="-295.65" x2="-282" y2="265.5"/><line id="Line_1615-2-3" data-name="Line 1615-2" class="cls-6" x1="390.44" y1="-295.65" x2="-219.43" y2="265.5"/><line id="Line_1623-2-2" data-name="Line 1623-2" class="cls-6" x1="265.3" y1="-295.65" x2="-344.57" y2="265.5"/><line id="Line_1611-2-3" data-name="Line 1611-2" class="cls-6" x1="421.72" y1="-295.65" x2="-188.14" y2="265.5"/><line id="Line_1639-2-2" data-name="Line 1639-2" class="cls-6" x1="171.44" y1="-295.65" x2="-438.43" y2="265.5"/><line id="Line_1624-2-2" data-name="Line 1624-2" class="cls-6" x1="296.58" y1="-295.65" x2="-313.28" y2="265.5"/><line id="Line_1616-2-2" data-name="Line 1616-2" class="cls-6" x1="359.15" y1="-295.65" x2="-250.71" y2="265.5"/><line id="Line_1625-2-2" data-name="Line 1625-2" class="cls-6" x1="234.01" y1="-295.65" x2="-375.86" y2="265.5"/><line id="Line_1607-2-3" data-name="Line 1607-2" class="cls-6" x1="442.58" y1="-295.65" x2="-167.28" y2="265.5"/><line id="Line_1643-2-2" data-name="Line 1643-2" class="cls-6" x1="192.29" y1="-295.65" x2="-417.57" y2="265.5"/><line id="Line_1626-2-2" data-name="Line 1626-2" class="cls-6" x1="317.44" y1="-295.65" x2="-292.43" y2="265.5"/><line id="Line_1617-2-3" data-name="Line 1617-2" class="cls-6" x1="380.01" y1="-295.65" x2="-229.85" y2="265.5"/><line id="Line_1627-2-2" data-name="Line 1627-2" class="cls-6" x1="254.87" y1="-295.65" x2="-355" y2="265.5"/><line id="Line_1612-2-3" data-name="Line 1612-2" class="cls-6" x1="411.3" y1="-295.65" x2="-198.57" y2="265.5"/><line id="Line_1628-2-2" data-name="Line 1628-2" class="cls-6" x1="286.15" y1="-295.65" x2="-323.71" y2="265.5"/><line id="Line_1618-2-2" data-name="Line 1618-2" class="cls-6" x1="348.72" y1="-295.65" x2="-261.14" y2="265.5"/><line id="Line_1629-2-2" data-name="Line 1629-2" class="cls-6" x1="223.58" y1="-295.65" x2="-386.28" y2="265.5"/><line id="Line_1609-2-3" data-name="Line 1609-2" class="cls-6" x1="432.15" y1="-295.65" x2="-177.71" y2="265.5"/><line id="Line_1651-2-2" data-name="Line 1651-2" class="cls-6" x1="181.87" y1="-295.65" x2="-428" y2="265.5"/><line id="Line_1630-2-2" data-name="Line 1630-2" class="cls-6" x1="307.01" y1="-295.65" x2="-302.86" y2="265.5"/><line id="Line_1619-2-2" data-name="Line 1619-2" class="cls-6" x1="369.58" y1="-295.65" x2="-240.28" y2="265.5"/><line id="Line_1631-2-2" data-name="Line 1631-2" class="cls-6" x1="244.44" y1="-295.65" x2="-365.43" y2="265.5"/><line id="Line_1613-2-3" data-name="Line 1613-2" class="cls-6" x1="400.87" y1="-295.65" x2="-209" y2="265.5"/><line id="Line_1632-2-2" data-name="Line 1632-2" class="cls-6" x1="275.72" y1="-295.65" x2="-334.14" y2="265.5"/><line id="Line_1620-2-2" data-name="Line 1620-2" class="cls-6" x1="338.3" y1="-295.65" x2="-271.57" y2="265.5"/><line id="Line_1633-2-2" data-name="Line 1633-2" class="cls-6" x1="213.15" y1="-295.65" x2="-396.71" y2="265.5"/></g></g></g></g></svg>