<svg id="Layer_1" data-name="Layer 1" xmlns="http://www.w3.org/2000/svg" xmlns:xlink="http://www.w3.org/1999/xlink" viewBox="0 0 279 252"><defs><style>.cls-1,.cls-3,.cls-6{fill:none;}.cls-2{clip-path:url(#clip-path);}.cls-3,.cls-6{stroke:#fff;}.cls-4{clip-path:url(#clip-path-2);}.cls-5{clip-path:url(#clip-path-3);}.cls-6{stroke-width:0.5px;}</style><clipPath id="clip-path"><rect class="cls-1" x="-598.94" width="278" height="252"/></clipPath><clipPath id="clip-path-2"><rect class="cls-1" x="1.06" width="278" height="252"/></clipPath><clipPath id="clip-path-3"><rect class="cls-1" y="-200" width="139" height="126"/></clipPath></defs><g id="Group_3229" data-name="Group 3229"><g class="cls-2"><g id="Group_1962-2" data-name="Group 1962-2"><g id="Group_1956-2" data-name="Group 1956-2"><line id="Line_1605-2" data-name="Line 1605-2" class="cls-3" x1="307.09" y1="-591.3" x2="-912.64" y2="531.01"/><line id="Line_1622-2" data-name="Line 1622-2" class="cls-3" x1="56.8" y1="-591.3" x2="-1162.93" y2="531.01"/><line id="Line_1615-2" data-name="Line 1615-2" class="cls-3" x1="181.94" y1="-591.3" x2="-1037.79" y2="531.01"/><line id="Line_1611-2" data-name="Line 1611-2" class="cls-3" x1="244.51" y1="-591.3" x2="-975.22" y2="531.01"/><line id="Line_1616-2" data-name="Line 1616-2" class="cls-3" x1="119.37" y1="-591.3" x2="-1100.36" y2="531.01"/><line id="Line_1607-2" data-name="Line 1607-2" class="cls-3" x1="286.23" y1="-591.3" x2="-933.5" y2="531.01"/><line id="Line_1626-2" data-name="Line 1626-2" class="cls-3" x1="35.94" y1="-591.3" x2="-1183.79" y2="531.01"/><line id="Line_1617-2" data-name="Line 1617-2" class="cls-3" x1="161.09" y1="-591.3" x2="-1058.64" y2="531.01"/><line id="Line_1612-2" data-name="Line 1612-2" class="cls-3" x1="223.66" y1="-591.3" x2="-996.07" y2="531.01"/><line id="Line_1618-2" data-name="Line 1618-2" class="cls-3" x1="98.51" y1="-591.3" x2="-1121.22" y2="531.01"/><line id="Line_1609-2" data-name="Line 1609-2" class="cls-3" x1="265.37" y1="-591.3" x2="-954.36" y2="531.01"/><line id="Line_1630-2" data-name="Line 1630-2" class="cls-3" x1="15.08" y1="-591.3" x2="-1204.65" y2="531.01"/><line id="Line_1619-2" data-name="Line 1619-2" class="cls-3" x1="140.23" y1="-591.3" x2="-1079.5" y2="531.01"/><line id="Line_1613-2" data-name="Line 1613-2" class="cls-3" x1="202.8" y1="-591.3" x2="-1016.93" y2="531.01"/><line id="Line_1620-2" data-name="Line 1620-2" class="cls-3" x1="77.66" y1="-591.3" x2="-1142.07" y2="531.01"/></g></g></g></g><g id="Group_3229-2" data-name="Group 3229"><g class="cls-4"><g id="Group_1962-2-2" data-name="Group 1962-2"><g id="Group_1956-2-2" data-name="Group 1956-2"><line id="Line_1605-2-2" data-name="Line 1605-2" class="cls-3" x1="-626.96" y1="843.31" x2="592.77" y2="-279"/><line id="Line_1635-2" data-name="Line 1635-2" class="cls-3" x1="-126.38" y1="843.31" x2="1093.35" y2="-279"/><line id="Line_1622-2-2" data-name="Line 1622-2" class="cls-3" x1="-376.67" y1="843.31" x2="843.06" y2="-279"/><line id="Line_1615-2-2" data-name="Line 1615-2" class="cls-3" x1="-501.81" y1="843.31" x2="717.92" y2="-279"/><line id="Line_1623-2" data-name="Line 1623-2" class="cls-3" x1="-251.53" y1="843.31" x2="968.2" y2="-279"/><line id="Line_1611-2-2" data-name="Line 1611-2" class="cls-3" x1="-564.39" y1="843.31" x2="655.34" y2="-279"/><line id="Line_1639-2" data-name="Line 1639-2" class="cls-3" x1="-63.81" y1="843.31" x2="1155.92" y2="-279"/><line id="Line_1624-2" data-name="Line 1624-2" class="cls-3" x1="-314.1" y1="843.31" x2="905.63" y2="-279"/><line id="Line_1616-2-2" data-name="Line 1616-2" class="cls-3" x1="-439.24" y1="843.31" x2="780.49" y2="-279"/><line id="Line_1625-2" data-name="Line 1625-2" class="cls-3" x1="-188.96" y1="843.31" x2="1030.77" y2="-279"/><line id="Line_1607-2-2" data-name="Line 1607-2" class="cls-3" x1="-606.1" y1="843.31" x2="613.63" y2="-279"/><line id="Line_1643-2" data-name="Line 1643-2" class="cls-3" x1="-105.53" y1="843.31" x2="1114.2" y2="-279"/><line id="Line_1626-2-2" data-name="Line 1626-2" class="cls-3" x1="-355.81" y1="843.31" x2="863.92" y2="-279"/><line id="Line_1617-2-2" data-name="Line 1617-2" class="cls-3" x1="-480.96" y1="843.31" x2="738.77" y2="-279"/><line id="Line_1627-2" data-name="Line 1627-2" class="cls-3" x1="-230.67" y1="843.31" x2="989.06" y2="-279"/><line id="Line_1612-2-2" data-name="Line 1612-2" class="cls-3" x1="-543.53" y1="843.31" x2="676.2" y2="-279"/><line id="Line_1628-2" data-name="Line 1628-2" class="cls-3" x1="-293.24" y1="843.31" x2="926.49" y2="-279"/><line id="Line_1618-2-2" data-name="Line 1618-2" class="cls-3" x1="-418.39" y1="843.31" x2="801.34" y2="-279"/><line id="Line_1629-2" data-name="Line 1629-2" class="cls-3" x1="-168.1" y1="843.31" x2="1051.63" y2="-279"/><line id="Line_1609-2-2" data-name="Line 1609-2" class="cls-3" x1="-585.24" y1="843.31" x2="634.49" y2="-279"/><line id="Line_1651-2" data-name="Line 1651-2" class="cls-3" x1="-84.67" y1="843.31" x2="1135.06" y2="-279"/><line id="Line_1630-2-2" data-name="Line 1630-2" class="cls-3" x1="-334.96" y1="843.31" x2="884.77" y2="-279"/><line id="Line_1619-2-2" data-name="Line 1619-2" class="cls-3" x1="-460.1" y1="843.31" x2="759.63" y2="-279"/><line id="Line_1631-2" data-name="Line 1631-2" class="cls-3" x1="-209.81" y1="843.31" x2="1009.92" y2="-279"/><line id="Line_1613-2-2" data-name="Line 1613-2" class="cls-3" x1="-522.67" y1="843.31" x2="697.06" y2="-279"/><line id="Line_1632-2" data-name="Line 1632-2" class="cls-3" x1="-272.38" y1="843.31" x2="947.35" y2="-279"/><line id="Line_1620-2-2" data-name="Line 1620-2" class="cls-3" x1="-397.53" y1="843.31" x2="822.2" y2="-279"/><line id="Line_1633-2" data-name="Line 1633-2" class="cls-3" x1="-147.24" y1="843.31" x2="1072.49" y2="-279"/></g></g></g></g><g id="Group_3229-3" data-name="Group 3229"><g class="cls-5"><g id="Group_1962-2-3" data-name="Group 1962-2"><g id="Group_1956-2-3" data-name="Group 1956-2"><line id="Line_1605-2-3" data-name="Line 1605-2" class="cls-6" x1="-314.01" y1="221.65" x2="295.85" y2="-339.5"/><line id="Line_1635-2-2" data-name="Line 1635-2" class="cls-6" x1="-63.72" y1="221.65" x2="546.14" y2="-339.5"/><line id="Line_1622-2-3" data-name="Line 1622-2" class="cls-6" x1="-188.87" y1="221.65" x2="421" y2="-339.5"/><line id="Line_1615-2-3" data-name="Line 1615-2" class="cls-6" x1="-251.44" y1="221.65" x2="358.43" y2="-339.5"/><line id="Line_1623-2-2" data-name="Line 1623-2" class="cls-6" x1="-126.3" y1="221.65" x2="483.57" y2="-339.5"/><line id="Line_1611-2-3" data-name="Line 1611-2" class="cls-6" x1="-282.72" y1="221.65" x2="327.14" y2="-339.5"/><line id="Line_1639-2-2" data-name="Line 1639-2" class="cls-6" x1="-32.44" y1="221.65" x2="577.43" y2="-339.5"/><line id="Line_1624-2-2" data-name="Line 1624-2" class="cls-6" x1="-157.58" y1="221.65" x2="452.28" y2="-339.5"/><line id="Line_1616-2-3" data-name="Line 1616-2" class="cls-6" x1="-220.15" y1="221.65" x2="389.71" y2="-339.5"/><line id="Line_1625-2-2" data-name="Line 1625-2" class="cls-6" x1="-95.01" y1="221.65" x2="514.86" y2="-339.5"/><line id="Line_1607-2-3" data-name="Line 1607-2" class="cls-6" x1="-303.58" y1="221.65" x2="306.28" y2="-339.5"/><line id="Line_1643-2-2" data-name="Line 1643-2" class="cls-6" x1="-53.29" y1="221.65" x2="556.57" y2="-339.5"/><line id="Line_1626-2-3" data-name="Line 1626-2" class="cls-6" x1="-178.44" y1="221.65" x2="431.43" y2="-339.5"/><line id="Line_1617-2-3" data-name="Line 1617-2" class="cls-6" x1="-241.01" y1="221.65" x2="368.85" y2="-339.5"/><line id="Line_1627-2-2" data-name="Line 1627-2" class="cls-6" x1="-115.87" y1="221.65" x2="494" y2="-339.5"/><line id="Line_1612-2-3" data-name="Line 1612-2" class="cls-6" x1="-272.3" y1="221.65" x2="337.57" y2="-339.5"/><line id="Line_1628-2-2" data-name="Line 1628-2" class="cls-6" x1="-147.15" y1="221.65" x2="462.71" y2="-339.5"/><line id="Line_1618-2-3" data-name="Line 1618-2" class="cls-6" x1="-209.72" y1="221.65" x2="400.14" y2="-339.5"/><line id="Line_1629-2-2" data-name="Line 1629-2" class="cls-6" x1="-84.58" y1="221.65" x2="525.28" y2="-339.5"/><line id="Line_1609-2-3" data-name="Line 1609-2" class="cls-6" x1="-293.15" y1="221.65" x2="316.71" y2="-339.5"/><line id="Line_1651-2-2" data-name="Line 1651-2" class="cls-6" x1="-42.87" y1="221.65" x2="567" y2="-339.5"/><line id="Line_1630-2-3" data-name="Line 1630-2" class="cls-6" x1="-168.01" y1="221.65" x2="441.86" y2="-339.5"/><line id="Line_1619-2-3" data-name="Line 1619-2" class="cls-6" x1="-230.58" y1="221.65" x2="379.28" y2="-339.5"/><line id="Line_1631-2-2" data-name="Line 1631-2" class="cls-6" x1="-105.44" y1="221.65" x2="504.43" y2="-339.5"/><line id="Line_1613-2-3" data-name="Line 1613-2" class="cls-6" x1="-261.87" y1="221.65" x2="348" y2="-339.5"/><line id="Line_1632-2-2" data-name="Line 1632-2" class="cls-6" x1="-136.72" y1="221.65" x2="473.14" y2="-339.5"/><line id="Line_1620-2-3" data-name="Line 1620-2" class="cls-6" x1="-199.3" y1="221.65" x2="410.57" y2="-339.5"/><line id="Line_1633-2-2" data-name="Line 1633-2" class="cls-6" x1="-74.15" y1="221.65" x2="535.71" y2="-339.5"/></g></g></g></g></svg>