<svg xmlns="http://www.w3.org/2000/svg" xmlns:xlink="http://www.w3.org/1999/xlink" width="96" height="96" viewBox="0 0 96 96"><defs><clipPath id="a"><rect width="96" height="96" fill="none"/></clipPath><clipPath id="b"><path d="M10.39,120.86H-57.69C-11.9,81.33-9.49,79.43-8.32,78.6a23.37,23.37,0,0,1,29.14,36.45,24.4,24.4,0,0,1-10.43,5.81Z" fill="none"/></clipPath></defs><rect width="88.42" height="88.42" transform="translate(0 7.58)" fill="#f3f3f3"/><g clip-path="url(#a)"><path d="M85,23.85s5.91,1.34,6.57,11.29.91,17.51.91,17.51A1.87,1.87,0,0,1,91,54.86c-1.76.33-8-14.73-13.58-18.23"/><path d="M60.71,124.33a16.942,16.942,0,0,0,2-.12c6.88-.84,13.12-6.28,15.9-13.87,3.61-9.88,1.46-22.19-5.78-32.91A106.451,106.451,0,0,0,56.19,59.36c-1.45-1.34-2.94-2.73-4.38-4.1A50.41,50.41,0,0,1,42.3,43.88a17.07,17.07,0,0,1-2.25-12,19.25,19.25,0,0,1,9.54-11.37c3.31-1.86,5.4-2.12,6.19-1.77L60.27,8.52c-4.52-2-10-1.22-16.16,2.27A30.22,30.22,0,0,0,29.17,29.34a28.16,28.16,0,0,0,3.34,20,59.91,59.91,0,0,0,11.57,14c1.49,1.43,3,2.85,4.5,4.22a97.11,97.11,0,0,1,15,16.13c5.23,7.76,6.93,16.29,4.54,22.82-1.1,3-3.62,6.23-6.73,6.61-2.92.35-6.44-1.7-10.07-4l-6,9.41C49,120.87,54.41,124.33,60.71,124.33Z" fill="#e8306e"/><path d="M45.52,22.38c4.91,5.86,22.73,10.31,29.07,6,1.49-1-2.83-16.65-6.1-21.5a8.1,8.1,0,0,0-8.18-3.67A31.31,31.31,0,0,0,50.23,6C41.9,9.3,38.73,14.27,45.52,22.38Z" fill="#f5b6cd"/><path d="M44.88,22.92h0c-3.23-3.86-4.44-7.18-3.68-10.14s3.64-5.54,8.72-7.54l.86-.33a29.5,29.5,0,0,1,9.45-2.49,8.9,8.9,0,0,1,9,4,52.52,52.52,0,0,1,4.94,12.43c2.56,9.13,1.38,9.93.93,10.23a14.4,14.4,0,0,1-7.89,1.83C59.07,30.94,48.58,27.33,44.88,22.92ZM74,27.78c.62-1.92-3-15.63-6.21-20.39a7.24,7.24,0,0,0-7.4-3.3,28.15,28.15,0,0,0-9,2.38l-.85.34c-4.49,1.76-7.09,3.91-7.72,6.39s.52,5.28,3.34,8.64h0c5.41,6.47,22.51,9.34,27.84,5.95Z" fill="#f5b6cd"/><path d="M29.9,137H-76.43C-4.92,75.25-1.15,72.29.67,71a36.5,36.5,0,0,1,45.52,56.93A38.23,38.23,0,0,1,29.9,137Z" fill="#f39ab9"/><ellipse cx="7.56" cy="7.46" rx="7.56" ry="7.46" transform="translate(55.349 26.029) rotate(-84.55)" fill="#e8306e"/><rect width="14.56" height="21.54" transform="translate(59.227 25.132) rotate(-58.07)" fill="#e8306e"/><path d="M59.12,25.3,59,25.19l7.92-12.7L85.32,24l.18.11-7.93,12.7ZM67,13.05l-7.48,12L77.45,36.23l7.48-12Z" fill="#e8306e"/><circle cx="3.48" cy="3.48" r="3.48" transform="translate(59.49 15.2)" fill="#fff"/><path d="M62.59,22.7A4,4,0,0,1,59,18.3h0a4,4,0,1,1,4,4.42Zm-2.51-4.28a2.92,2.92,0,1,0,3.18-2.64H63a2.92,2.92,0,0,0-2.92,2.64Z" fill="#f39ab9"/><circle cx="1.75" cy="1.75" r="1.75" transform="translate(60.49 16.97)"/><path d="M62.06,20.67a2,2,0,0,1-1.77-2.13h0a2,2,0,1,1,2,2.15Zm.18-3.5a1.54,1.54,0,0,0-1.54,1.4h0a1.57,1.57,0,0,0,.35,1.14,1.54,1.54,0,0,0,2.18.2,1.52,1.52,0,0,0,.56-1,1.55,1.55,0,0,0-1.39-1.69h-.16Z"/><circle cx="0.55" cy="0.55" r="0.55" transform="translate(61.95 17.88)" fill="#fff"/><g clip-path="url(#b)"><path d="M10.39,120.86H-57.69C-11.9,81.33-9.49,79.43-8.32,78.6a23.37,23.37,0,0,1,29.14,36.45,24.4,24.4,0,0,1-10.43,5.81Z" fill="#e8306e"/></g></g></svg>