<svg id="Layer_1" data-name="Layer 1" xmlns="http://www.w3.org/2000/svg" 
viewBox="0 0 34 37"><defs><style>.cls-1{isolation:isolate;}.cls-2{fill:#3c3c3c;}</style></defs><g id="MENU" 
class="cls-1"><g class="cls-1"><path class="cls-2" d="M8.25,35.83l-.13-5.7L5.26,35H5.14L2.26,30.12l-.1,5.71H1.27l.31-8.2.16,0,3.5,6.07,3.41-6.07.18,0,.31,8.2Z"/><path class="cls-2" d="M11.33,35.83V27.76h4.72v.79H12.22v2.79h3.45v.79H12.22V35h3.83v.8Z"/><path class="cls-2" d="M24.32,36l-5.24-6.27v6.12H18.2V27.65l.18,0,5.17,6.17v-6h.88V36Z"/><path class="cls-2" d="M29.66,36a2.78,2.78,0,0,1-3-3V27.76h.88v5.11a2,2,0,0,0,2.14,2.3,2,2,0,0,0,2.17-2.3V27.76h.88v5.17A2.86,2.86,0,0,1,29.66,36Z"/></g></g><rect class="cls-2" x="1" y="17" width="32" height="2"/><rect class="cls-2" x="1" y="9" width="32" height="2"/><rect class="cls-2" x="1" y="1" width="32" height="2"/></svg>