<svg xmlns="http://www.w3.org/2000/svg" xmlns:xlink="http://www.w3.org/1999/xlink" viewBox="0 0 24 24"><defs><style>.cls-1{fill:none;}.cls-2{clip-path:url(#clip-path);}.cls-3{fill:#949494;fill-rule:evenodd;}</style><clipPath id="clip-path"><rect class="cls-1" x="0.93" y="0.93" width="22.14" height="22.14"/></clipPath></defs><g id="Layer_1" data-name="Layer 1"><g class="cls-2"><g id="Instagram"><path id="Path_40" data-name="Path 40" class="cls-3" d="M12,2.9A32.74,32.74,0,0,1,16.43,3a5.76,5.76,0,0,1,2.09.37,4.33,4.33,0,0,1,2.09,2.09A5.76,5.76,0,0,1,21,7.57c0,1.11.12,1.48.12,4.43A32.74,32.74,0,0,1,21,16.43a5.76,5.76,0,0,1-.37,2.09,4.33,4.33,0,0,1-2.09,2.09,5.76,5.76,0,0,1-2.09.37c-1.11,0-1.48.12-4.43.12A32.74,32.74,0,0,1,7.57,21a5.76,5.76,0,0,1-2.09-.37,4.33,4.33,0,0,1-2.09-2.09A5.76,5.76,0,0,1,3,16.43C3,15.32,2.9,15,2.9,12A32.78,32.78,0,0,1,3,7.57a5.76,5.76,0,0,1,.37-2.09,4.4,4.4,0,0,1,.86-1.23,2.08,2.08,0,0,1,1.23-.86A5.76,5.76,0,0,1,7.57,3,32.74,32.74,0,0,1,12,2.9m0-2a38.36,38.36,0,0,0-4.55.12,7.61,7.61,0,0,0-2.71.5,4.7,4.7,0,0,0-2,1.23,4.7,4.7,0,0,0-1.23,2,5.62,5.62,0,0,0-.5,2.71A38.36,38.36,0,0,0,.93,12a38.36,38.36,0,0,0,.12,4.55,7.61,7.61,0,0,0,.5,2.71,4.73,4.73,0,0,0,1.23,2,4.8,4.8,0,0,0,2,1.23A7.6,7.6,0,0,0,7.45,23a34.53,34.53,0,0,0,4.55.12A34.53,34.53,0,0,0,16.55,23a7.6,7.6,0,0,0,2.71-.49,5.19,5.19,0,0,0,3.2-3.2A7.78,7.78,0,0,0,23,16.55c0-1.23.12-1.6.12-4.55A34.53,34.53,0,0,0,23,7.45a7.77,7.77,0,0,0-.49-2.7,4.88,4.88,0,0,0-1.23-2,4.73,4.73,0,0,0-2-1.23,7.61,7.61,0,0,0-2.71-.5A38.36,38.36,0,0,0,12,.93m0,5.41a5.57,5.57,0,0,0-5.66,5.48V12A5.66,5.66,0,1,0,12,6.34h0m0,9.35a3.63,3.63,0,0,1-3.69-3.56V12a3.63,3.63,0,0,1,3.56-3.69H12a3.63,3.63,0,0,1,3.69,3.56V12a3.63,3.63,0,0,1-3.56,3.69H12M17.9,4.74A1.36,1.36,0,1,0,19.25,6.1,1.35,1.35,0,0,0,17.9,4.74"/></g></g></g><g id="spacers"><rect class="cls-1" width="24" height="24"/></g></svg>