<svg xmlns="http://www.w3.org/2000/svg" xmlns:xlink="http://www.w3.org/1999/xlink" viewBox="0 0 24 24"><defs><style>.cls-1{fill:none;}.cls-2{clip-path:url(#clip-path);}.cls-3{fill:#fff;}.cls-4{fill:#949494;}</style><clipPath id="clip-path"><rect class="cls-1" x="2.42" y="6.64" width="16.46" height="16.43"/></clipPath></defs><g id="Layer_1" data-name="Layer 1"><g class="cls-2"><g id="Linked_In" data-name="Linked In"><path id="Path_265" data-name="Path 265" class="cls-3" d="M4.4,6.64a2,2,0,1,0,2,2h0A2,2,0,0,0,4.4,6.64Z"/><rect id="Rectangle_379" data-name="Rectangle 379" class="cls-3" x="2.69" y="12.09" width="3.41" height="10.98"/><path id="Path_266" data-name="Path 266" class="cls-3" d="M14.79,11.82a3.59,3.59,0,0,0-3.23,1.77h-.05v-1.5H8.24v11h3.41V17.64c0-1.43.27-2.82,2-2.82s1.77,1.64,1.77,2.91v5.34h3.41v-6C18.88,14.09,18.24,11.82,14.79,11.82Z"/><path id="Path_267" data-name="Path 267" class="cls-4" d="M6.1,23.07H2.69v-11H6.1ZM4.4,10.59a2,2,0,1,1,2-2h0A2,2,0,0,1,4.4,10.59ZM18.88,23.07H15.47V17.73c0-1.27,0-2.91-1.77-2.91s-2,1.39-2,2.82v5.43H8.24v-11h3.27v1.5h.05a3.59,3.59,0,0,1,3.23-1.77c3.45,0,4.09,2.27,4.09,5.23Z"/></g></g></g><g id="spacers"><rect class="cls-1" width="24" height="24"/></g></svg>