<svg id="Layer_1" data-name="Layer 1" xmlns="http://www.w3.org/2000/svg" viewBox="0 0 22 22"><defs><style>.cls-1{fill:#3c3c3c;}</style></defs><path id="Path_1334" data-name="Path 1334" class="cls-1" d="M21,19.24l-4.15-4.15a8.69,8.69,0,0,0,1.76-5.28A8.75,8.75,0,0,0,9.91,1h-.1A8.75,8.75,0,0,0,1,9.7v.11a8.75,8.75,0,0,0,8.7,8.8h.11a8.69,8.69,0,0,0,5.28-1.76L19.24,21ZM3.52,9.81A6.22,6.22,0,0,1,9.68,3.52h.13a6.21,6.21,0,0,1,6.28,6.16v.13a6.21,6.21,0,0,1-6.16,6.28H9.81A6.22,6.22,0,0,1,3.52,9.93Z"/></svg>