<svg id="Layer_1" data-name="Layer 1" xmlns="http://www.w3.org/2000/svg" viewBox="0 0 688 518"><defs><style>.cls-1{fill:#fff;}</style></defs><path class="cls-1" d="M389.06,347.37c31.08-33.59,42.84-57.11,47.88-89.87-1.68.84-5,.84-6.72.84-21.84,0-39.48-19.32-39.48-41.16s18.48-40.32,40.32-40.32,44.52,16,44.52,52.92-25.2,94.92-77.28,126.84Zm140.28,0c31.08-33.59,42.84-57.11,47.88-89.87-1.68.84-5,.84-6.72.84C548.66,258.34,531,239,531,217.18s18.48-40.32,40.32-40.32,44.52,16,44.52,52.92-25.2,94.92-77.28,126.84Z"/><path class="cls-1" d="M134.52,92.22c-31.08,33.6-42.84,57.12-47.88,89.88,1.68-.84,5-.84,6.72-.84,21.84,0,39.48,19.32,39.48,41.15s-18.48,40.32-40.32,40.32S48,246.78,48,209.82,73.2,114.9,125.28,83Zm140.28,0c-31.08,33.6-42.84,57.12-47.88,89.88,1.68-.84,5-.84,6.72-.84,21.84,0,39.48,19.32,39.48,41.15s-18.48,40.32-40.32,40.32-44.52-16-44.52-52.91S213.48,114.9,265.56,83Z"/></svg>