<svg id="Layer_1" data-name="Layer 1" xmlns="http://www.w3.org/2000/svg" viewBox="0 0 47.71 43.19"><path id="Path_1423" data-name="Path 1423" d="M30.62,8.82a3.38,3.38,0,1,0-3.38-3.38h0a3.36,3.36,0,0,0,3.35,3.38Zm5.62,13.5a9.29,9.29,0,1,0,.18,0Zm0,16a6.57,6.57,0,1,1,6.57-6.57,6.66,6.66,0,0,1-6.57,6.57Zm-7.88-19.7h7.88V15.2h-6L26.68,9a3.3,3.3,0,0,0-4.57-1,3.13,3.13,0,0,0-.5.4l-6.93,6.93a3.11,3.11,0,0,0-.94,2.25,3.3,3.3,0,0,0,1.5,2.82l6.38,3.75v9.38H25V21.39L20.86,18.2l4.32-4.32ZM10,22.32a9.38,9.38,0,1,0,9.37,9.38A9.38,9.38,0,0,0,10,22.32Zm0,16a6.57,6.57,0,1,1,6.56-6.57A6.57,6.57,0,0,1,10,38.27Z"/></svg>