<svg id="Layer_1" data-name="Layer 1" xmlns="http://www.w3.org/2000/svg" viewBox="0 0 48 43.19"><path id="Path_1422" data-name="Path 1422" d="M40.8,4.5a3.67,3.67,0,0,0-3.41-2.44H10.58A3.44,3.44,0,0,0,7.17,4.5L2.05,19.12v19.5a2.3,2.3,0,0,0,2.16,2.44H6.92a2.3,2.3,0,0,0,2.44-2.15,1.41,1.41,0,0,0,0-.29V36.19H38.61v2.43a2.3,2.3,0,0,0,2.16,2.44h2.72a2.3,2.3,0,0,0,2.44-2.15V19.12ZM10.58,28.87a3.66,3.66,0,1,1,3.65-3.65A3.65,3.65,0,0,1,10.58,28.87Zm26.81,0a3.66,3.66,0,1,1,3.66-3.65A3.74,3.74,0,0,1,37.39,28.87ZM6.92,16.69l3.66-11H37.39l3.66,11Z"/></svg>