<svg id="Layer_1" data-name="Layer 1" xmlns="http://www.w3.org/2000/svg" viewBox="0 0 27.92 43.19"><g id="Group_3763" data-name="Group 3763"><path id="Path_1420" data-name="Path 1420" d="M15.7,9.13a3.65,3.65,0,1,0-3.65-3.65A3.66,3.66,0,0,0,15.7,9.13Z"/><path id="Path_1421" data-name="Path 1421" d="M25.73,22.81V19.16a9.35,9.35,0,0,1-7.94-4.47l-1.73-2.92a3.63,3.63,0,0,0-4.47-1.46L2,14.24v8.57H5.66V16.7l3.19-1.37-5,25.74H7.67l3.19-14.6,3.92,3.65v11h3.65V27.29l-3.74-3.74,1.1-5.48A12.71,12.71,0,0,0,25.73,22.81Z"/></g></svg>