<svg xmlns="http://www.w3.org/2000/svg" viewBox="0 0 24 24"><defs><style>.cls-1{fill:#fffdfd;}</style></defs><g id="spacers"><path class="cls-1" d="M18.17,16.13A.83.83,0,1,1,19,15.3a.83.83,0,0,1-.83.83Zm-4.14,0a.83.83,0,1,1,.83-.83.83.83,0,0,1-.83.83Zm6.14,4.74A4.86,4.86,0,0,0,22.31,17c0-2.86-2.78-5.18-6.21-5.18S9.89,14.1,9.89,17s2.78,5.17,6.21,5.17a7.48,7.48,0,0,0,2-.28.57.57,0,0,1,.18,0,.64.64,0,0,1,.33.1L20,22.7a.19.19,0,0,0,.12,0,.21.21,0,0,0,.21-.21.42.42,0,0,0,0-.15s-.17-.65-.28-1a.59.59,0,0,1,0-.13.4.4,0,0,1,.18-.34Z"/><path class="cls-1" d="M11.63,11.28a1,1,0,1,1,1-1,1,1,0,0,1-1,1Zm-5,0a1,1,0,1,1,1-1,1,1,0,0,1-1,1ZM9.14,6.06C5,6.06,1.69,8.84,1.69,12.28A5.84,5.84,0,0,0,4.26,17a.49.49,0,0,1,.18.57l-.33,1.25a.58.58,0,0,0,0,.18.25.25,0,0,0,.25.25.24.24,0,0,0,.14,0l1.63-.94a.83.83,0,0,1,.4-.11.78.78,0,0,1,.22,0,8.75,8.75,0,0,0,2.43.34h.41A4.89,4.89,0,0,1,9.3,17c0-3.13,3-5.67,6.8-5.67h.41c-.57-3-3.65-5.24-7.37-5.24Z"/></g></svg>