<svg xmlns="http://www.w3.org/2000/svg" xmlns:xlink="http://www.w3.org/1999/xlink" viewBox="0 0 400 600"><defs><style>.cls-1,.cls-14,.cls-24{fill:none;}.cls-2,.cls-5{fill:#c5050c;}.cls-3{clip-path:url(#clip-path);}.cls-4,.cls-8{fill:#939393;}.cls-20,.cls-4,.cls-5{fill-rule:evenodd;}.cls-6{clip-path:url(#clip-path-2);}.cls-7{clip-path:url(#clip-path-3);}.cls-10,.cls-13,.cls-9{isolation:isolate;}.cls-10,.cls-13{font-size:10px;font-family:ArialMT, Arial;}.cls-10{fill:#3c3c3c;}.cls-11,.cls-20{fill:#fff;}.cls-12{clip-path:url(#clip-path-4);}.cls-13{fill:#787878;}.cls-14{stroke:#33c5f3;}.cls-14,.cls-24{stroke-width:0.25px;}.cls-15{clip-path:url(#clip-path-5);}.cls-16{clip-path:url(#clip-path-6);}.cls-17{clip-path:url(#clip-path-7);}.cls-18{clip-path:url(#clip-path-8);}.cls-19{clip-path:url(#clip-path-9);}.cls-21{clip-path:url(#clip-path-10);}.cls-22{clip-path:url(#clip-path-11);}.cls-23{clip-path:url(#clip-path-12);}.cls-24{stroke:#231f20;stroke-miterlimit:10;}.cls-25{fill:#ace1fa;}</style><clipPath id="clip-path"><rect class="cls-1" x="56.7" y="90.28" width="11.56" height="22.14"/></clipPath><clipPath id="clip-path-2"><rect class="cls-1" x="85.25" y="94.28" width="22.12" height="17.94"/></clipPath><clipPath id="clip-path-3"><rect class="cls-1" x="124.56" y="90.28" width="22.14" height="22.14"/></clipPath><clipPath id="clip-path-4"><rect class="cls-1" x="62.7" y="213.28" width="24" height="24"/></clipPath><clipPath id="clip-path-5"><rect class="cls-1" x="113.7" y="213.28" width="24" height="24"/></clipPath><clipPath id="clip-path-6"><rect class="cls-1" x="209.7" y="213.28" width="24" height="24"/></clipPath><clipPath id="clip-path-7"><rect class="cls-1" x="259.7" y="213.28" width="24" height="24"/></clipPath><clipPath id="clip-path-8"><rect class="cls-1" x="164.7" y="213.28" width="24" height="24"/></clipPath><clipPath id="clip-path-9"><rect class="cls-1" x="59.44" y="407.98" width="11.56" height="22.14"/></clipPath><clipPath id="clip-path-10"><rect class="cls-1" x="89.79" y="412.17" width="22.12" height="17.94"/></clipPath><clipPath id="clip-path-11"><rect class="cls-1" x="130.21" y="407.98" width="22.14" height="22.14"/></clipPath><clipPath id="clip-path-12"><rect class="cls-1" x="172.08" y="413.68" width="16.46" height="16.43"/></clipPath></defs><g id="Layer_1" data-name="Layer 1"><rect class="cls-2" x="34.68" y="392.19" width="170.01" height="51.64"/><g class="cls-3"><g id="Facebook"><path id="Path_38" data-name="Path 38" class="cls-4" d="M64.2,112.42V102.33h3.44l.5-3.93H64.2V95.94c0-1.11.37-2,2-2h2.09V90.4c-.49,0-1.72-.12-3.07-.12-3,0-5,1.85-5,5.17v3H56.7v3.93h3.44v10.09Z"/></g></g><g id="Facebook_-_Red" data-name="Facebook - Red"><path id="Path_38-2" data-name="Path 38-2" class="cls-5" d="M56.56,236.42V224.51h4.06l.59-4.64H56.56V217c0-1.31.43-2.32,2.32-2.32h2.47v-4.21c-.58,0-2-.15-3.63-.15-3.49,0-5.95,2.18-5.95,6.1v3.49H47.7v4.64h4.07v11.91Z"/></g><g class="cls-6"><g id="Twitter"><path id="Path_39" data-name="Path 39" class="cls-4" d="M92.26,112.22a12.8,12.8,0,0,0,12.91-12.67v-.84a10.45,10.45,0,0,0,2.21-2.34,10.15,10.15,0,0,1-2.58.74,4.81,4.81,0,0,0,2-2.46,11.42,11.42,0,0,1-2.82,1.11,4.38,4.38,0,0,0-3.32-1.48,4.62,4.62,0,0,0-4.55,4.55,2.32,2.32,0,0,0,.12,1A12.71,12.71,0,0,1,86.85,95a4.74,4.74,0,0,0-.61,2.33,4.87,4.87,0,0,0,2,3.81,4.07,4.07,0,0,1-2.09-.61h0A4.48,4.48,0,0,0,89.8,105a3.87,3.87,0,0,1-1.22.13,2.07,2.07,0,0,1-.86-.13,4.64,4.64,0,0,0,4.3,3.2,9.3,9.3,0,0,1-5.66,2,3.22,3.22,0,0,1-1.11-.13,11.55,11.55,0,0,0,7,2.21"/></g></g><g id="Twitter_-_Red" data-name="Twitter - Red"><path id="Path_39-2" data-name="Path 39-2" class="cls-5" d="M95.53,236.47a15.1,15.1,0,0,0,15.24-15v-1a12.21,12.21,0,0,0,2.61-2.76,12.51,12.51,0,0,1-3,.87,5.63,5.63,0,0,0,2.32-2.9,13.31,13.31,0,0,1-3.34,1.3,5.17,5.17,0,0,0-3.91-1.74,5.45,5.45,0,0,0-5.37,5.37,2.69,2.69,0,0,0,.14,1.16,15,15,0,0,1-11-5.66,5.56,5.56,0,0,0-.73,2.76,5.76,5.76,0,0,0,2.33,4.5,4.88,4.88,0,0,1-2.47-.73h0a5.31,5.31,0,0,0,4.35,5.23,4.71,4.71,0,0,1-1.45.14,2.66,2.66,0,0,1-1-.14,5.5,5.5,0,0,0,5.08,3.77A10.94,10.94,0,0,1,88.56,234a3.88,3.88,0,0,1-1.31-.14,13.75,13.75,0,0,0,8.28,2.61"/></g><g class="cls-7"><g id="Instagram"><path id="Path_40" data-name="Path 40" class="cls-4" d="M135.63,92.25a32.78,32.78,0,0,1,4.43.12,5.76,5.76,0,0,1,2.09.37,4.33,4.33,0,0,1,2.09,2.09,5.76,5.76,0,0,1,.37,2.09c0,1.11.12,1.48.12,4.43a32.74,32.74,0,0,1-.12,4.43,5.76,5.76,0,0,1-.37,2.09,4.33,4.33,0,0,1-2.09,2.09,5.76,5.76,0,0,1-2.09.37c-1.11,0-1.48.12-4.43.12a32.74,32.74,0,0,1-4.43-.12,5.76,5.76,0,0,1-2.09-.37,4.33,4.33,0,0,1-2.09-2.09,5.76,5.76,0,0,1-.37-2.09c0-1.11-.12-1.48-.12-4.43a32.83,32.83,0,0,1,.12-4.43,5.76,5.76,0,0,1,.37-2.09,4.34,4.34,0,0,1,.86-1.23,2.08,2.08,0,0,1,1.23-.86,5.76,5.76,0,0,1,2.09-.37,32.74,32.74,0,0,1,4.43-.12m0-2a38.36,38.36,0,0,0-4.55.12,7.61,7.61,0,0,0-2.71.5,4.8,4.8,0,0,0-2,1.23,4.91,4.91,0,0,0-1.23,2,5.74,5.74,0,0,0-.49,2.71,36.34,36.34,0,0,0-.12,4.55,36.34,36.34,0,0,0,.12,4.55,7.83,7.83,0,0,0,.49,2.71,5.15,5.15,0,0,0,3.2,3.2,7.6,7.6,0,0,0,2.71.49,36.35,36.35,0,0,0,4.55.13,36.35,36.35,0,0,0,4.55-.13,7.64,7.64,0,0,0,2.71-.49,5.19,5.19,0,0,0,3.2-3.2,7.78,7.78,0,0,0,.49-2.71c0-1.23.12-1.6.12-4.55a38.47,38.47,0,0,0-.12-4.55,7.77,7.77,0,0,0-.49-2.7,4.88,4.88,0,0,0-1.23-2,4.8,4.8,0,0,0-2-1.23,7.65,7.65,0,0,0-2.71-.5,38.36,38.36,0,0,0-4.55-.12m0,5.41a5.57,5.57,0,0,0-5.66,5.48v.18a5.66,5.66,0,1,0,5.66-5.66h0m0,9.35a3.62,3.62,0,0,1-3.69-3.56v-.13a3.62,3.62,0,0,1,3.56-3.69h.13a3.63,3.63,0,0,1,3.69,3.56v.13a3.63,3.63,0,0,1-3.56,3.69h-.13m5.9-11a1.36,1.36,0,1,0,1.35,1.36,1.35,1.35,0,0,0-1.35-1.36"/></g></g><g id="Instagram_-_Red" data-name="Instagram - Red"><path id="Path_40-2" data-name="Path 40-2" class="cls-5" d="M151.56,213.59a39.28,39.28,0,0,1,5.2.15,6.59,6.59,0,0,1,2.45.43,5,5,0,0,1,2.46,2.45,6.68,6.68,0,0,1,.43,2.46c0,1.3.15,1.73.15,5.2a41,41,0,0,1-.15,5.2,6.68,6.68,0,0,1-.43,2.46,5,5,0,0,1-2.46,2.45,6.6,6.6,0,0,1-2.45.44c-1.3,0-1.74.14-5.2.14a41,41,0,0,1-5.2-.14,6.69,6.69,0,0,1-2.46-.44,5,5,0,0,1-2.45-2.45,6.69,6.69,0,0,1-.44-2.46c0-1.3-.14-1.73-.14-5.2a41.06,41.06,0,0,1,.14-5.2,6.69,6.69,0,0,1,.44-2.46,5.13,5.13,0,0,1,1-1.44,2.48,2.48,0,0,1,1.44-1,6.68,6.68,0,0,1,2.46-.43,41,41,0,0,1,5.2-.15m0-2.31a45.52,45.52,0,0,0-5.35.14A9,9,0,0,0,143,212a6.12,6.12,0,0,0-3.76,3.76,6.68,6.68,0,0,0-.58,3.18,41.37,41.37,0,0,0-.14,5.34,41.37,41.37,0,0,0,.14,5.34,9,9,0,0,0,.58,3.18,6.05,6.05,0,0,0,3.76,3.76,9,9,0,0,0,3.17.58,43.45,43.45,0,0,0,5.35.14,43.24,43.24,0,0,0,5.34-.14,9,9,0,0,0,3.18-.58,6.08,6.08,0,0,0,3.76-3.76,8.82,8.82,0,0,0,.57-3.18c0-1.44.15-1.87.15-5.34a43.24,43.24,0,0,0-.15-5.34,8.82,8.82,0,0,0-.57-3.18,6.12,6.12,0,0,0-3.76-3.76,9,9,0,0,0-3.18-.58,45.29,45.29,0,0,0-5.34-.14m0,6.36a6.54,6.54,0,0,0-6.65,6.42v.22a6.65,6.65,0,1,0,6.65-6.64h0m0,11a4.24,4.24,0,0,1-4.33-4.17.43.43,0,0,1,0-.16A4.24,4.24,0,0,1,151.4,220h.16a4.25,4.25,0,0,1,4.33,4.18v.15a4.26,4.26,0,0,1-4.18,4.33h-.15m6.93-12.85a1.59,1.59,0,1,0,1.59,1.59,1.59,1.59,0,0,0-1.59-1.59"/></g><g id="Linked_In" data-name="Linked In"><path id="Path_265" data-name="Path 265" class="cls-8" d="M165.33,95.28a2,2,0,1,0,2,2h0A2,2,0,0,0,165.33,95.28Z"/><rect id="Rectangle_379" data-name="Rectangle 379" class="cls-8" x="163.63" y="100.74" width="3.41" height="10.98"/><path id="Path_266" data-name="Path 266" class="cls-8" d="M175.73,100.46a3.61,3.61,0,0,0-3.23,1.78h-.05v-1.5h-3.27v11h3.41v-5.43c0-1.44.27-2.82,2-2.82s1.77,1.64,1.77,2.91v5.34h3.41v-6C179.82,102.74,179.18,100.46,175.73,100.46Z"/></g><g id="Linked_in_-_Red" data-name="Linked in - Red"><path id="Path_265-2" data-name="Path 265-2" class="cls-2" d="M191.8,218.28a2.32,2.32,0,1,0,2.32,2.32h0A2.32,2.32,0,0,0,191.8,218.28Z"/><rect id="Rectangle_379-2" data-name="Rectangle 379-2" class="cls-2" x="189.79" y="224.68" width="4" height="12.88"/><path id="Path_266-2" data-name="Path 266-2" class="cls-2" d="M204,224.36a4.24,4.24,0,0,0-3.79,2.09h0v-1.76h-3.84v12.88h4v-6.38c0-1.68.32-3.3,2.4-3.3s2.08,1.92,2.08,3.41v6.27h4V230.5C208.79,227,208.05,224.36,204,224.36Z"/></g><g id="Color:_949494_Contrast:_3" data-name="Color: 949494 Contrast: 3" class="cls-9"><text class="cls-10" transform="translate(56.7 139.28)">Color: #949494 </text><text class="cls-10" transform="translate(56.7 152.28)">Contrast: 3</text></g><g id="Color:_C5050C_Contrast:_6.2" data-name="Color: C5050C Contrast: 6.2" class="cls-9"><text class="cls-10" transform="translate(56.7 271.28)">Color: #C5050C</text><text class="cls-10" transform="translate(56.7 284.28)">Contrast: 6.2</text></g><g id="Color:_C5050C_Contrast:_6.2-2" data-name="Color: C5050C Contrast: 6.2" class="cls-9"><text class="cls-10" transform="translate(38.49 471.04)">layout of social icons in footer</text><text class="cls-10" transform="translate(38.68 491.14)">Contrast: 6.2</text></g><g id="We_Chat_-_Gray" data-name="We Chat - Gray"><path id="Path_1415" data-name="Path 1415" class="cls-8" d="M198.1,91.28a4.19,4.19,0,0,0-4.18,4.18v12a4.2,4.2,0,0,0,4.18,4.18h12a4.21,4.21,0,0,0,4.19-4.15V95.42a4.19,4.19,0,0,0-4.19-4.14Z"/><path id="Path_1425" data-name="Path 1425" class="cls-11" d="M209.06,102.77a.67.67,0,1,1,0-1.33.67.67,0,0,1,0,1.33h0m-3.32,0a.67.67,0,1,1,0-1.33.67.67,0,0,1,0,1.33h0m4.92,3.8a3.93,3.93,0,0,0,1.72-3.14c0-2.29-2.23-4.15-5-4.15s-5,1.86-5,4.15,2.23,4.15,5,4.15a5.87,5.87,0,0,0,1.62-.23l.15,0a.47.47,0,0,1,.26.08l1.09.63a.19.19,0,0,0,.1,0,.17.17,0,0,0,.17-.17.27.27,0,0,0,0-.12l-.22-.84a.36.36,0,0,1,0-.1.32.32,0,0,1,.14-.27"/><path id="Path_1426" data-name="Path 1426" class="cls-11" d="M203.81,98.88a.8.8,0,1,1,.8-.8h0a.8.8,0,0,1-.8.8m-4,0a.8.8,0,1,1,.8-.8.8.8,0,0,1-.8.8h0m2-4.18c-3.3,0-6,2.23-6,5a4.64,4.64,0,0,0,2.06,3.76.43.43,0,0,1,.17.33.69.69,0,0,1,0,.13l-.27,1a.57.57,0,0,0,0,.14.2.2,0,0,0,.2.2.16.16,0,0,0,.12,0l1.31-.75a.56.56,0,0,1,.31-.09l.18,0a7.18,7.18,0,0,0,1.95.28h.33a4,4,0,0,1-.2-1.22c0-2.51,2.44-4.54,5.45-4.54h.32c-.45-2.38-2.92-4.2-5.9-4.2"/></g><g id="We_Chat_-_Red" data-name="We Chat - Red"><path id="Path_1415-2" data-name="Path 1415-2" class="cls-2" d="M239,212.28a5.13,5.13,0,0,0-5.12,5.12v14.72a5.12,5.12,0,0,0,5.12,5.11h14.72a5.12,5.12,0,0,0,5.11-5.07V217.35a5.13,5.13,0,0,0-5.11-5.07Z"/><path id="Path_1425-2" data-name="Path 1425-2" class="cls-11" d="M252.45,226.34a.81.81,0,0,1-.81-.81.81.81,0,1,1,1.62,0h0a.81.81,0,0,1-.81.81m-4.06,0a.82.82,0,0,1-.82-.81.82.82,0,0,1,.82-.82.82.82,0,0,1,.81.82h0a.81.81,0,0,1-.81.81m6,4.65a4.77,4.77,0,0,0,2.1-3.84c0-2.8-2.73-5.08-6.1-5.08s-6.1,2.28-6.1,5.08,2.73,5.08,6.1,5.08a7,7,0,0,0,2-.28l.18,0a.63.63,0,0,1,.33.09l1.33.77a.21.21,0,0,0,.12,0,.2.2,0,0,0,.2-.2h0a.83.83,0,0,0,0-.15l-.27-1a.69.69,0,0,1,0-.13.41.41,0,0,1,.17-.34"/><path id="Path_1426-2" data-name="Path 1426-2" class="cls-11" d="M246,221.59a1,1,0,1,1,1-1,1,1,0,0,1-1,1h0m-4.87,0a1,1,0,1,1,0-2,1,1,0,0,1,0,2h0m2.43-5.12c-4,0-7.31,2.73-7.31,6.1a5.72,5.72,0,0,0,2.53,4.6.51.51,0,0,1,.2.4.41.41,0,0,1,0,.16l-.33,1.23a1,1,0,0,0,0,.18.25.25,0,0,0,.25.24h0a.24.24,0,0,0,.14,0l1.6-.92a.75.75,0,0,1,.6-.08,8.78,8.78,0,0,0,2.39.33h.4a5,5,0,0,1-.25-1.49c0-3.07,3-5.56,6.68-5.56h.4c-.56-2.91-3.58-5.14-7.23-5.14"/></g><g id="Snap_Chat_-_Gray" data-name="Snap Chat - Gray"><path id="Path_1419" data-name="Path 1419" class="cls-8" d="M249.89,106.7a1.5,1.5,0,0,0-.75-.8l-.17-.09-.29-.14a6.55,6.55,0,0,1-2.34-2,5.07,5.07,0,0,1-.4-.72.36.36,0,0,1,0-.27.44.44,0,0,1,.13-.14l.47-.3.5-.33a2.67,2.67,0,0,0,.88-1,1.85,1.85,0,0,0-1.68-2.72,2.24,2.24,0,0,0-.52.06l-.14,0c0-.49,0-1,0-1.53a5.6,5.6,0,0,0-1.44-3.49,5.78,5.78,0,0,0-1.47-1.18,7,7,0,0,0-6.71,0,5.78,5.78,0,0,0-1.47,1.18,5.6,5.6,0,0,0-1.44,3.5c0,.51-.05,1-.05,1.52l-.13,0a2.24,2.24,0,0,0-.52-.06,1.84,1.84,0,0,0-1.78,1.17,1.9,1.9,0,0,0,.09,1.55,2.67,2.67,0,0,0,.89.94l.5.33.45.3a.54.54,0,0,1,.15.15.37.37,0,0,1,0,.29,4.8,4.8,0,0,1-.39.7,6.43,6.43,0,0,1-2.27,2c-.52.27-1.06.45-1.28,1.07a1.37,1.37,0,0,0,.37,1.44h0a2.46,2.46,0,0,0,.55.41,6.26,6.26,0,0,0,1.34.54.72.72,0,0,1,.27.12c.16.13.13.34.34.65a1.69,1.69,0,0,0,.4.4,2.54,2.54,0,0,0,1.47.34,5.33,5.33,0,0,1,1.63.25,4,4,0,0,1,.82.43,6,6,0,0,0,6.88,0,4.92,4.92,0,0,1,.82-.43,5.64,5.64,0,0,1,1.63-.24,2.65,2.65,0,0,0,1.46-.34,1.44,1.44,0,0,0,.45-.5c.16-.25.15-.43.29-.56a.85.85,0,0,1,.26-.11,6.35,6.35,0,0,0,1.35-.54,2.32,2.32,0,0,0,.58-.45h0A1.34,1.34,0,0,0,249.89,106.7Zm-1.5.81c-.91.5-1.52.45-2,.75s-.16.82-.46,1-1.41,0-2.79.44c-1.13.37-1.85,1.44-3.88,1.44s-2.73-1.07-3.88-1.45c-1.37-.45-2.43-.18-2.79-.43s-.06-.76-.46-1-1.08-.25-2-.75c-.58-.33-.25-.52-.06-.62,3.32-1.6,3.85-4.08,3.87-4.26a.58.58,0,0,0-.19-.63c-.23-.22-1.28-.87-1.57-1.07-.49-.34-.7-.67-.54-1.09a.63.63,0,0,1,.65-.39,1.24,1.24,0,0,1,.27,0c.53.11,1,.38,1.34.45H234c.16,0,.21-.08.2-.26a18.17,18.17,0,0,1,0-2.76,4.44,4.44,0,0,1,1.15-2.81,5.54,5.54,0,0,1,7.83,0h0a4.31,4.31,0,0,1,1.15,2.8,19.7,19.7,0,0,1,0,2.77c0,.19,0,.26.2.26l.11,0c.3-.07.81-.33,1.34-.45a1.09,1.09,0,0,1,.26,0,.66.66,0,0,1,.66.39c.15.42-.06.75-.54,1.09-.29.2-1.34.85-1.58,1.07a.6.6,0,0,0-.19.63c0,.19.56,2.66,3.87,4.26.21.1.54.3,0,.63Z"/></g><g id="Snap_Chat_-_Red" data-name="Snap Chat - Red"><path id="Path_1419-2" data-name="Path 1419-2" class="cls-2" d="M308.47,231.59a1.68,1.68,0,0,0-.84-.9l-.19-.1-.32-.16a7.13,7.13,0,0,1-2.62-2.25,4.53,4.53,0,0,1-.45-.8.34.34,0,0,1,0-.31.4.4,0,0,1,.14-.15l.53-.35.55-.37a2.93,2.93,0,0,0,1-1,2.07,2.07,0,0,0-1.89-3.05,2.86,2.86,0,0,0-.58.06l-.15,0a16.36,16.36,0,0,0-.05-1.71,6.19,6.19,0,0,0-1.62-3.92,6.39,6.39,0,0,0-1.64-1.33,7.84,7.84,0,0,0-7.52,0,6.61,6.61,0,0,0-1.65,1.33,6.28,6.28,0,0,0-1.61,3.92,16.44,16.44,0,0,0-.05,1.71l-.16,0a2.76,2.76,0,0,0-.57-.06,2.08,2.08,0,0,0-2,1.31,2.14,2.14,0,0,0,.1,1.75,3.11,3.11,0,0,0,1,1.05l.56.37.51.33a.65.65,0,0,1,.16.17.36.36,0,0,1,0,.32,4.69,4.69,0,0,1-.44.79,7.31,7.31,0,0,1-2.54,2.21c-.58.3-1.18.51-1.44,1.2a1.52,1.52,0,0,0,.42,1.61h0a2.33,2.33,0,0,0,.62.46,6.11,6.11,0,0,0,1.5.6,1.35,1.35,0,0,1,.3.14c.17.16.15.39.38.73a1.61,1.61,0,0,0,.45.45A2.85,2.85,0,0,0,290,236a6.34,6.34,0,0,1,1.83.27,5.41,5.41,0,0,1,.92.49,6.77,6.77,0,0,0,7.72,0,4.43,4.43,0,0,1,.91-.49,6.29,6.29,0,0,1,1.83-.27,3,3,0,0,0,1.64-.38,1.67,1.67,0,0,0,.5-.56c.17-.29.17-.49.33-.63a1,1,0,0,1,.28-.13,6.45,6.45,0,0,0,1.52-.61,2.1,2.1,0,0,0,.65-.5h0A1.5,1.5,0,0,0,308.47,231.59Zm-1.68.91c-1,.56-1.71.5-2.24.85s-.18.91-.51,1.14-1.59,0-3.12.49c-1.27.42-2.08,1.62-4.36,1.62s-3.07-1.2-4.35-1.63c-1.54-.5-2.73-.21-3.13-.48s-.06-.86-.51-1.15-1.21-.28-2.24-.84c-.65-.36-.28-.59-.06-.69,3.71-1.8,4.3-4.58,4.33-4.79a.65.65,0,0,0-.21-.7c-.26-.25-1.44-1-1.77-1.2-.54-.38-.78-.76-.6-1.22a.73.73,0,0,1,.74-.44,1.36,1.36,0,0,1,.29,0c.6.13,1.17.43,1.5.51h.13c.18,0,.24-.09.23-.29a20.05,20.05,0,0,1,0-3.1,5,5,0,0,1,1.28-3.16,6.2,6.2,0,0,1,8.77,0l0,0a4.91,4.91,0,0,1,1.29,3.16,20.07,20.07,0,0,1,0,3.1c0,.21.05.29.23.29l.13,0c.33-.08.91-.38,1.5-.51a1.36,1.36,0,0,1,.29,0,.73.73,0,0,1,.74.44c.17.47-.06.85-.6,1.22-.33.23-1.5,1-1.77,1.2a.65.65,0,0,0-.21.7c0,.21.62,3,4.33,4.79C307.07,231.91,307.44,232.13,306.79,232.5Z"/></g><g class="cls-12"><g id="_24px" data-name=" 24px"><g id="_24" data-name=" 24" class="cls-9"><text class="cls-13" transform="translate(69.7 229.28)">24</text></g><g id="Rectangle_1735" data-name="Rectangle 1735"><rect class="cls-1" x="62.7" y="213.28" width="24" height="24"/><rect class="cls-14" x="62.82" y="213.41" width="23.75" height="23.75"/></g></g></g><g class="cls-15"><g id="_24px-2" data-name=" 24px-2"><g id="_24-2" data-name=" 24-2" class="cls-9"><text class="cls-13" transform="translate(120.7 229.28)">24</text></g><g id="Rectangle_1735-2" data-name="Rectangle 1735-2"><rect class="cls-1" x="113.7" y="213.28" width="24" height="24"/><rect class="cls-14" x="113.82" y="213.41" width="23.75" height="23.75"/></g></g></g><g class="cls-16"><g id="_24px-3" data-name=" 24px-3"><g id="_24-3" data-name=" 24-3" class="cls-9"><text class="cls-13" transform="translate(216.7 229.28)">24</text></g><g id="Rectangle_1735-3" data-name="Rectangle 1735-3"><rect class="cls-1" x="209.7" y="213.28" width="24" height="24"/><rect class="cls-14" x="209.82" y="213.41" width="23.75" height="23.75"/></g></g></g><g class="cls-17"><g id="_24px-4" data-name=" 24px-4"><g id="_24-4" data-name=" 24-4" class="cls-9"><text class="cls-13" transform="translate(266.7 229.28)">24</text></g><g id="Rectangle_1735-4" data-name="Rectangle 1735-4"><rect class="cls-1" x="259.7" y="213.28" width="24" height="24"/><rect class="cls-14" x="259.82" y="213.41" width="23.75" height="23.75"/></g></g></g><g class="cls-18"><g id="_24px-5" data-name=" 24px-5"><g id="_24-5" data-name=" 24-5" class="cls-9"><text class="cls-13" transform="translate(171.7 229.28)">24</text></g><g id="Rectangle_1735-5" data-name="Rectangle 1735-5"><rect class="cls-1" x="164.7" y="213.28" width="24" height="24"/><rect class="cls-14" x="164.82" y="213.41" width="23.75" height="23.75"/></g></g></g><g class="cls-19"><g id="Facebook-2" data-name="Facebook"><path id="Path_38-2-2" data-name="Path 38" class="cls-20" d="M66.94,430.12V420h3.44l.5-3.93H66.94v-2.46c0-1.11.37-2,2-2H71V408.1c-.49,0-1.72-.12-3.07-.12-3,0-5.05,1.84-5.05,5.16v3H59.44V420h3.44v10.09Z"/></g></g><g class="cls-21"><g id="Twitter-2" data-name="Twitter"><path id="Path_39-2-2" data-name="Path 39" class="cls-20" d="M96.8,430.12a12.79,12.79,0,0,0,12.9-12.68v-.84a10.07,10.07,0,0,0,2.22-2.34,10.27,10.27,0,0,1-2.58.74,4.77,4.77,0,0,0,2-2.46,11.19,11.19,0,0,1-2.82,1.11,4.42,4.42,0,0,0-3.32-1.48,4.63,4.63,0,0,0-4.55,4.55,2.32,2.32,0,0,0,.12,1,12.68,12.68,0,0,1-9.34-4.79,4.78,4.78,0,0,0-.61,2.34,4.88,4.88,0,0,0,2,3.81,4.18,4.18,0,0,1-2.09-.62h0a4.49,4.49,0,0,0,3.68,4.43,3.9,3.9,0,0,1-1.23.12,2.11,2.11,0,0,1-.86-.12,4.69,4.69,0,0,0,4.3,3.2,9.24,9.24,0,0,1-5.65,2,3.47,3.47,0,0,1-1.11-.12,11.68,11.68,0,0,0,7,2.21"/></g></g><g class="cls-22"><g id="Instagram-2" data-name="Instagram"><path id="Path_40-2-2" data-name="Path 40" class="cls-20" d="M141.28,410a32.74,32.74,0,0,1,4.43.12,5.49,5.49,0,0,1,2.09.37,4.33,4.33,0,0,1,2.09,2.09,5.55,5.55,0,0,1,.37,2.09c0,1.11.13,1.48.13,4.43a34.56,34.56,0,0,1-.13,4.43,5.55,5.55,0,0,1-.37,2.09,4.33,4.33,0,0,1-2.09,2.09,5.69,5.69,0,0,1-2.09.37c-1.11,0-1.47.12-4.43.12a34.35,34.35,0,0,1-4.42-.12,5.77,5.77,0,0,1-2.1-.37,4.33,4.33,0,0,1-2.09-2.09,6,6,0,0,1-.37-2.09c0-1.11-.12-1.48-.12-4.43a36.36,36.36,0,0,1,.12-4.43,6,6,0,0,1,.37-2.09,4.61,4.61,0,0,1,.86-1.23,2.08,2.08,0,0,1,1.23-.86,5.57,5.57,0,0,1,2.1-.37,32.63,32.63,0,0,1,4.42-.12m0-2a34.62,34.62,0,0,0-4.55.12,7.77,7.77,0,0,0-2.7.49,4.88,4.88,0,0,0-2,1.23,4.73,4.73,0,0,0-1.23,2,5.5,5.5,0,0,0-.49,2.71,79.69,79.69,0,0,0,0,9.1,7.33,7.33,0,0,0,.49,2.7,4.77,4.77,0,0,0,1.23,2,4.88,4.88,0,0,0,2,1.23,7.77,7.77,0,0,0,2.7.49,34.62,34.62,0,0,0,4.55.12,34.53,34.53,0,0,0,4.55-.12,7.78,7.78,0,0,0,2.71-.49,5.19,5.19,0,0,0,3.2-3.2,7.6,7.6,0,0,0,.49-2.71c0-1.23.13-1.6.13-4.55a36.35,36.35,0,0,0-.13-4.55,7.64,7.64,0,0,0-.49-2.71,4.8,4.8,0,0,0-1.23-2,4.88,4.88,0,0,0-2-1.23,7.78,7.78,0,0,0-2.71-.49,34.53,34.53,0,0,0-4.55-.12m0,5.41a5.56,5.56,0,0,0-5.65,5.47.6.6,0,0,0,0,.19,5.66,5.66,0,1,0,5.65-5.66h0m0,9.35a3.63,3.63,0,0,1-3.69-3.56v-.13a3.63,3.63,0,0,1,3.56-3.69h.13a3.61,3.61,0,0,1,3.69,3.55v.14a3.62,3.62,0,0,1-3.55,3.69h-.14m5.9-10.95a1.36,1.36,0,1,0,1.36,1.35,1.37,1.37,0,0,0-1.36-1.35"/></g></g><g class="cls-23"><g id="Linked_In-2" data-name="Linked In"><path id="Path_265-2-2" data-name="Path 265" class="cls-11" d="M174.06,413.68a2,2,0,1,0,2,2h0A2,2,0,0,0,174.06,413.68Z"/><rect id="Rectangle_379-2-2" data-name="Rectangle 379" class="cls-11" x="172.35" y="419.14" width="3.41" height="10.98"/><path id="Path_266-2-2" data-name="Path 266" class="cls-11" d="M184.45,418.87a3.59,3.59,0,0,0-3.23,1.77h0v-1.5h-3.27v11h3.41v-5.43c0-1.43.27-2.82,2-2.82s1.78,1.64,1.78,2.91v5.34h3.41v-6C188.55,421.14,187.91,418.87,184.45,418.87Z"/><path id="Path_267" data-name="Path 267" class="cls-11" d="M175.77,430.12h-3.42v-11h3.42Zm-1.71-12.48a2,2,0,1,1,2-2h0A2,2,0,0,1,174.06,417.64Zm14.49,12.48h-3.42v-5.34c0-1.27,0-2.91-1.77-2.91s-2.05,1.39-2.05,2.82v5.43h-3.4v-11h3.27v1.5h0a3.59,3.59,0,0,1,3.23-1.77c3.46,0,4.1,2.27,4.1,5.23Z"/></g></g></g><g id="spacers"><rect class="cls-24" x="48.43" y="407.05" width="24" height="24"/><rect class="cls-24" x="88.85" y="407.01" width="24" height="24"/><rect class="cls-24" x="129.28" y="407.05" width="24" height="24"/><rect class="cls-24" x="169.67" y="407.05" width="24" height="24"/><rect class="cls-25" x="113.03" y="414.44" width="16" height="16"/><rect class="cls-25" x="153.42" y="414.44" width="16" height="16"/><rect class="cls-25" x="72.58" y="414.44" width="16" height="16"/></g></svg>