<svg id="Layer_1" data-name="Layer 1" xmlns="http://www.w3.org/2000/svg" viewBox="0 0 90 142"><defs><style>.cls-1{fill:#fff;}</style></defs><path class="cls-1" d="M89,51.24a68.73,68.73,0,0,0-4.66-19.43c-.07-.17-.32-.76-.38-.89A38.83,38.83,0,0,0,77.1,20c-4.87-5.35-10.91-8.28-17.59-8.38h-.13A9,9,0,0,0,52.81,7S51.31,1,45,1s-7.7,6-7.7,6a9.31,9.31,0,0,0-6.68,4.67h-.13c-6.68.1-12.72,3-17.59,8.38A38.83,38.83,0,0,0,6,30.92c-.06.13-.31.72-.38.89A68.39,68.39,0,0,0,1,51.24c-3.7,36.27,12.62,80.86,42,87.7.46.68,1.52,2.06,2.07,2.06s1.61-1.38,2.07-2.06C76.41,132.1,92.72,87.51,89,51.24ZM45,2.4a6.3,6.3,0,0,1,6.31,4.41,8.8,8.8,0,0,0-1,.14l-.94.25a7.75,7.75,0,0,0-4.13,3.59A.54.54,0,0,1,45,11a.61.61,0,0,1-.15-.2,8,8,0,0,0-4.22-3.58L39.69,7a8.52,8.52,0,0,0-1-.13A6.26,6.26,0,0,1,45,2.4Zm-2.87,7a6.59,6.59,0,0,1,2.52,3.52c.21.62.58.63.8,0A6.79,6.79,0,0,1,48.32,9.1a6.71,6.71,0,0,1,9.39,2.72,15.08,15.08,0,0,0-2,.41c-.35.12-.7.22-1.06.31l-.26.06a9,9,0,0,0-3.62,2.2,15.28,15.28,0,0,0-4.41,9.59c-1.07,11.73,12.38,9.89,13.06,9.83,1.74,0,3.05-2.74,3.05-6.37s-1.34-6.37-3.05-6.37c-1,0-2.84.84-3,4.09-.12,2.28,1,5.32,2.44,5.51.75.1,1.43-1.23,1.65-2.57.19-1.17.09-3-.95-3.26a.63.63,0,0,0-.75.45c-.07.3.65.81.62,2.15,0,2-2.06,1-1.78-2.18C57.86,22.84,59.3,23,59.36,23c.81,0,2,1.68,2,4.83,0,2.81-1.35,5.82-3.93,4.25-2.18-1.59-3-5.26-2.44-8.09.28-1.3,1.4-4.85,5-4.85,5.13,0,10,2.7,13.88,7.67h0l0,0A.27.27,0,0,1,74,27c-.38,1.27-3.2,6.83-11.82,11.89l0,0a12.29,12.29,0,0,0-5.49-1.48,17.08,17.08,0,0,0-5.15.16l-5.22,1.26a4.52,4.52,0,0,1-2.07,0l-5.63-1.29A16.79,16.79,0,0,0,33,37.33a18.06,18.06,0,0,0-5,1.53s-.37-.29-.38-.28C19.1,33.6,16.41,28.39,16,27c3.89-5.11,8.76-7.86,14-7.86,3.62,0,4.74,3.55,5,4.85.6,2.83-.26,6.5-2.44,8.09-2.58,1.57-3.94-1.44-3.94-4.25,0-3.15,1.22-4.83,2-4.83.06,0,1.5-.18,1.75,2.65.27,3.19-1.75,4.19-1.79,2.18,0-1.34.69-1.85.62-2.15a.63.63,0,0,0-.75-.45c-1,.26-1.14,2.09-.95,3.26.21,1.34.9,2.67,1.65,2.57,1.44-.19,2.56-3.23,2.44-5.51-.17-3.25-2-4.09-3-4.09-1.71,0-3.05,2.74-3.05,6.37s1.31,6.37,3.05,6.37c.67.06,14.13,1.9,13.06-9.83a15.1,15.1,0,0,0-4.88-9.78A10.61,10.61,0,0,0,35,12.49a22.27,22.27,0,0,0-2.68-.67A6.72,6.72,0,0,1,42.08,9.35ZM16.67,57.6a25.37,25.37,0,0,1-9.3-2.67C8.07,43.2,11,34,15.36,27.87c.77,2,4.12,7,11.86,11.51C21,43.9,17.67,51.51,16.67,57.6ZM28.09,40.87a15.1,15.1,0,0,1,7-1.94c4.4-.29,7.52,1.39,9.72,1.46h.11c2.19-.07,5.61-1.75,10-1.46a15.19,15.19,0,0,1,7,1.94c9,5.71,10.21,18.88,10.39,23.19A69.93,69.93,0,0,1,66.7,94.51c-6.2,13.64-13.69,23-21.07,26.25L45,121l-.59-.26c-7.39-3.28-14.87-12.61-21.07-26.25A69.93,69.93,0,0,1,17.7,64.06C17.88,59.75,19.14,46.58,28.09,40.87ZM16.54,58.45A49.73,49.73,0,0,0,16,63.76c-.09,1.88-.09,3.8,0,5.7,0,.37,0,.74,0,1.1l0,.27a72.43,72.43,0,0,0,1.53,11.06l.07.35a67.36,67.36,0,0,0,4.14,12.82c1.35,3,2.72,5.67,4.1,8.1-2.75,2.49-6.86,3.48-8.25,3.75-7.43-14.78-11.21-33.85-10.38-51A25.9,25.9,0,0,0,16.54,58.45Zm9.84,45.47c4.93,8.5,9.82,13.57,13.55,16.25-1.35,3.43-4.55,6.12-5.68,7C27.82,122.83,22.38,116,18.1,107.7A18.81,18.81,0,0,0,26.38,103.92Zm14.27,16.76h0A19.55,19.55,0,0,0,45,123.07a19.83,19.83,0,0,0,4.32-2.38,1.48,1.48,0,0,1,.13-.08,18.82,18.82,0,0,0,5.61,7,29.5,29.5,0,0,1-5.81,2.91l0-.22c-.41-2.12-3.24-2.55-4.25-2.55s-3.78.43-4.19,2.55a1.92,1.92,0,0,0,0,.22A30.13,30.13,0,0,1,35,127.66,18.92,18.92,0,0,0,40.65,120.68Zm9.52-.58c3.73-2.71,8.59-7.8,13.49-16.26a18.52,18.52,0,0,0,8.13,3.81c-4.22,8.27-9.59,15.12-16,19.46C54.62,126.18,51.48,123.49,50.17,120.1Zm13.93-17c1.36-2.4,2.72-5,4.05-8a67.36,67.36,0,0,0,4.14-12.82l.08-.35A73.7,73.7,0,0,0,73.9,70.83v-.27l.06-1.1c.07-1.9.07-3.82,0-5.7a52.68,52.68,0,0,0-.51-5.32,25.87,25.87,0,0,0,9.22-2.59c.59,17.19-3.15,36.24-10.48,51C70.59,106.52,66.7,105.49,64.1,103.07ZM73.32,57.6c-1-6.1-4.19-13.69-10.38-18.21,7.83-4.6,11-9.65,11.69-11.61,4.44,6.18,7.48,15.45,8,27.12A25.4,25.4,0,0,1,73.32,57.6ZM30.77,131.66l-.74-.52c-6.81-4.91-12.81-12.39-17.6-22l-.39-.79c-.53-1.08-1-2.18-1.53-3.31a110.49,110.49,0,0,1-8.46-51.4l.08-.87c0-.45.07-.91.11-1.36C3.41,39.94,6.61,30.57,11.33,24l.54-.74c4.92-6.5,11.4-10.1,18.93-10.1A12.2,12.2,0,0,1,37,14.81a12.82,12.82,0,0,1,5.35,9.69c.63,7.25-6.75,8.39-8.2,8.38-.22,0-.34-.21.38-1a10.44,10.44,0,0,0,1.68-8.18c-.7-3.33-3-5.92-6.45-5.92-5.6,0-10.57,2.92-14.5,8l-.55.75c-4.55,6.3-7.62,15.65-8.55,26.92l-.07.92c0,.35,0,.7-.08,1.06-1,17.11,2.69,36.11,10,51.07l.39.81c4.28,8.48,9.75,15.59,16.2,20.23l.75.51a31.77,31.77,0,0,0,7.2,3.72,10.65,10.65,0,0,0,1.07,5A35.29,35.29,0,0,1,30.77,131.66Zm14.77,7.18s-.28.35-.54.35-.52-.33-.54-.35c-1.26-1.58-3.13-4.64-2.42-8.29.2-1,2-1.51,3-1.51s2.76.47,3,1.51C48.67,134.2,46.8,137.26,45.54,138.84Zm33.95-33.78c-.49,1.12-1,2.22-1.51,3.29l-.41.79c-4.77,9.58-10.76,17-17.56,22l-.73.52a35.56,35.56,0,0,1-11,5.17,10.77,10.77,0,0,0,1.06-5,31.84,31.84,0,0,0,7.23-3.74l.75-.51c6.44-4.65,11.9-11.75,16.17-20.22l.39-.81c7.34-15,11-34,10-51.06,0-.36,0-.72-.08-1.07l-.07-.92c-.93-11.29-4-20.64-8.57-26.94l-.54-.73c-3.94-5.1-8.9-8-14.5-8-3.4,0-5.74,2.59-6.44,5.92a10.44,10.44,0,0,0,1.68,8.18c.82.92.45,1.21.23,1.21-2.2,0-8.68-1.38-8.05-8.63A12.82,12.82,0,0,1,53,14.81a12.2,12.2,0,0,1,6.23-1.68c7.53,0,14,3.6,18.93,10.1l.53.72c4.72,6.6,7.93,16,9.1,27.48,0,.45.07.91.11,1.37l.08.88A110.56,110.56,0,0,1,79.49,105.06Z"/><path class="cls-1" d="M58.34,51.34v3l.6-.09a2.33,2.33,0,0,1,.29,0,1.86,1.86,0,0,1,1.31.45,2,2,0,0,1,.34,1.78s-6,26-7.13,30.91C52.44,81.1,45.31,47,45.31,47l0-.14H43.87l0,.15S38.69,80.2,37.66,86.85c-1.35-5.75-7.09-30.38-7.09-30.38a3.64,3.64,0,0,1,0-.45A2,2,0,0,1,31,54.5a1.6,1.6,0,0,1,1.16-.36l.59.08V51.34h-10v2.82l.44.07a1.84,1.84,0,0,1,1.52,1.33S36.45,105.82,37,108l0,.14h1.76l0-.15c0-.35,4.82-31.53,5.71-37.38,1.13,5.82,7.2,37,7.27,37.38l0,.15h1.57L65,55.53a1.58,1.58,0,0,1,1.63-1.21h.11l.58,0v-3Z"/></svg>