<svg xmlns="http://www.w3.org/2000/svg" xmlns:xlink="http://www.w3.org/1999/xlink" viewBox="0 0 24 24"><defs><style>.cls-1{fill:none;}.cls-2{clip-path:url(#clip-path);}.cls-3{fill:#fff;fill-rule:evenodd;}</style><clipPath id="clip-path"><rect class="cls-1" x="0.94" y="5.17" width="22.12" height="17.94"/></clipPath></defs><g id="Layer_1" data-name="Layer 1"><g class="cls-2"><g id="Twitter"><path id="Path_39" data-name="Path 39" class="cls-3" d="M7.94,23.11A12.78,12.78,0,0,0,20.85,10.44V9.59a9.78,9.78,0,0,0,2.21-2.33A10.45,10.45,0,0,1,20.48,8a4.83,4.83,0,0,0,2-2.46,11.46,11.46,0,0,1-2.83,1.1A4.41,4.41,0,0,0,16.3,5.17a4.63,4.63,0,0,0-4.55,4.55,2.53,2.53,0,0,0,.13,1A12.73,12.73,0,0,1,2.54,5.91a4.64,4.64,0,0,0-.62,2.33,4.89,4.89,0,0,0,2,3.81,4.17,4.17,0,0,1-2.09-.61h0a4.49,4.49,0,0,0,3.69,4.42A3.65,3.65,0,0,1,4.26,16a2.09,2.09,0,0,1-.86-.12,4.64,4.64,0,0,0,4.3,3.2,9.34,9.34,0,0,1-5.65,2A3.45,3.45,0,0,1,.94,20.9a11.57,11.57,0,0,0,7,2.21"/></g></g></g><g id="spacers"><rect class="cls-1" width="24" height="24"/></g></svg>