<svg xmlns="http://www.w3.org/2000/svg" viewBox="0 0 24 24"><defs><style>.cls-1{fill:#949494;}</style></defs><g id="spacers"><path class="cls-1" d="M18.17,16.53a.78.78,0,0,1,0-1.56.78.78,0,0,1,0,1.56Zm-4.14,0a.78.78,0,1,1,.78-.78.78.78,0,0,1-.78.78Zm6.14,4.79a4.86,4.86,0,0,0,2.14-3.91c0-2.86-2.78-5.18-6.21-5.18s-6.21,2.32-6.21,5.18,2.78,5.17,6.21,5.17a7.48,7.48,0,0,0,2-.28.57.57,0,0,1,.18,0,.64.64,0,0,1,.33.1l1.36.78a.19.19,0,0,0,.12,0,.2.2,0,0,0,.21-.2.42.42,0,0,0,0-.16s-.17-.65-.28-1a.59.59,0,0,1,0-.13.42.42,0,0,1,.18-.34Z"/><path class="cls-1" d="M11.63,11.62a.88.88,0,1,1,.88-.88.88.88,0,0,1-.88.88Zm-5,0a.88.88,0,1,1,.88-.88.88.88,0,0,1-.88.88ZM9.14,6.51C5,6.51,1.69,9.3,1.69,12.73a5.84,5.84,0,0,0,2.57,4.69.49.49,0,0,1,.18.57l-.33,1.25a.58.58,0,0,0,0,.18.25.25,0,0,0,.25.25.24.24,0,0,0,.14-.05l1.63-.94a.83.83,0,0,1,.4-.11.78.78,0,0,1,.22,0,8.75,8.75,0,0,0,2.43.34h.41a4.84,4.84,0,0,1-.25-1.52c0-3.13,3-5.67,6.8-5.67h.41c-.57-3-3.65-5.24-7.37-5.24Z"/></g></svg>